<svg xmlns="http://www.w3.org/2000/svg" viewBox="0 0 500 500"><title>Asset 12</title><g id="Layer_2" data-name="Layer 2"><g id="Layer_1-2" data-name="Layer 1"><rect width="500" height="500" style="fill:#fff"/><path d="M11.75,233v-6.49H38.39A26.12,26.12,0,0,1,48,228a11.88,11.88,0,0,1,5.38,4.1A10,10,0,0,1,55.26,238a10.15,10.15,0,0,1-1,4.4A11,11,0,0,1,51.39,246a14.65,14.65,0,0,1-4.94,2.64,20.55,20.55,0,0,1,5,1.85,10.46,10.46,0,0,1,4,3.95A11,11,0,0,1,57,260.14,11.55,11.55,0,0,1,54.72,267a14,14,0,0,1-6.36,4.79q-4.11,1.65-12,1.65H11.75V267H13.6a6.44,6.44,0,0,0,2.51-.32,1.85,1.85,0,0,0,.92-.91,7.87,7.87,0,0,0,.27-2.64V236.94a7.89,7.89,0,0,0-.27-2.66,2,2,0,0,0-.92-.91A6.39,6.39,0,0,0,13.6,233ZM28.9,245.55H34a19.44,19.44,0,0,0,6-.68,5.77,5.77,0,0,0,2.91-2,5.27,5.27,0,0,0,1-3.14,5.36,5.36,0,0,0-.92-3.16,5,5,0,0,0-2.67-1.87,23.7,23.7,0,0,0-6.26-.56H28.9Zm0,6.89v10.15a12.38,12.38,0,0,0,.17,2.52,1.08,1.08,0,0,0,.55.66,6.93,6.93,0,0,0,2.1.18h3.42a18.59,18.59,0,0,0,5-.55,6.39,6.39,0,0,0,3.33-2.31,6.55,6.55,0,0,0,1.38-4.2,6.18,6.18,0,0,0-1-3.53,5.91,5.91,0,0,0-2.92-2.18,17.64,17.64,0,0,0-5.94-.74Z" style="fill:#255025"/><path d="M61.31,226.55h39.16l5.35,14.83-6.08,2.18a20.18,20.18,0,0,0-3.62-5.85,10,10,0,0,0-4.57-2.94,21.17,21.17,0,0,0-5.83-.72H78.56v11.7h2.35a10.76,10.76,0,0,0,3.58-.39,2.51,2.51,0,0,0,1.33-1.21,8.67,8.67,0,0,0,.4-3.28v-1.78h6V259h-6v-2a6.82,6.82,0,0,0-.49-3,2.53,2.53,0,0,0-1.33-1.29,12.7,12.7,0,0,0-3.73-.34H78.56v10.79a7.47,7.47,0,0,0,.16,2.09,1.15,1.15,0,0,0,.66.57,6.61,6.61,0,0,0,2.1.2h3.94a19.39,19.39,0,0,0,7.43-1.26,14.27,14.27,0,0,0,5.4-4.09,20,20,0,0,0,3.65-6.71L108,256l-6.16,17.44H61.31V267h1.17a9.78,9.78,0,0,0,3.16-.33,2.09,2.09,0,0,0,1.15-1.18,13.48,13.48,0,0,0,.17-2.86V237a8,8,0,0,0-.29-2.72,1.94,1.94,0,0,0-.89-1,5.92,5.92,0,0,0-2.39-.32H61.31Z" style="fill:#255025"/><path d="M110.8,226.55h24.59q8.37,0,13.32,2.66a19.63,19.63,0,0,1,7.89,7.86,25.11,25.11,0,0,1,3,12.51,25.77,25.77,0,0,1-1.5,9.08,22,22,0,0,1-4.46,7.21,20.69,20.69,0,0,1-6.36,4.82,28.27,28.27,0,0,1-7.25,2,49.25,49.25,0,0,1-7.52.77H110.8V267h1.62a7.09,7.09,0,0,0,2.71-.33,2.56,2.56,0,0,0,1-1.15,8.83,8.83,0,0,0,.27-2.79V237.07a8.29,8.29,0,0,0-.28-2.77,1.93,1.93,0,0,0-1-.94,7.75,7.75,0,0,0-2.79-.32H110.8Zm17.18,7.5v29.21a5.76,5.76,0,0,0,.16,1.82,1.48,1.48,0,0,0,.79.69,10.29,10.29,0,0,0,2.51.18c3.68,0,6.55-.56,8.62-1.7a12.32,12.32,0,0,0,5-5.46,19.4,19.4,0,0,0,1.92-8.94,20.53,20.53,0,0,0-1.8-8.91,11.72,11.72,0,0,0-4.46-5.34c-1.77-1-4.3-1.55-7.6-1.55Z" style="fill:#255025"/><path d="M164.49,226.55h24.59q8.38,0,13.32,2.66a19.63,19.63,0,0,1,7.89,7.86,25,25,0,0,1,3,12.51,25.77,25.77,0,0,1-1.5,9.08,21.85,21.85,0,0,1-4.46,7.21,20.69,20.69,0,0,1-6.36,4.82,28.27,28.27,0,0,1-7.25,2,49.25,49.25,0,0,1-7.52.77H164.49V267h1.62a7.05,7.05,0,0,0,2.71-.33,2.58,2.58,0,0,0,1.05-1.15,8.83,8.83,0,0,0,.27-2.79V237.07a8.2,8.2,0,0,0-.29-2.77,1.93,1.93,0,0,0-.95-.94,7.75,7.75,0,0,0-2.79-.32h-1.62Zm17.18,7.5v29.21a5.35,5.35,0,0,0,.17,1.82,1.41,1.41,0,0,0,.79.69,10.13,10.13,0,0,0,2.5.18c3.68,0,6.55-.56,8.62-1.7a12.32,12.32,0,0,0,5-5.46,19.4,19.4,0,0,0,1.92-8.94,20.53,20.53,0,0,0-1.8-8.91,11.72,11.72,0,0,0-4.46-5.34c-1.77-1-4.3-1.55-7.6-1.55Z" style="fill:#255025"/><path d="M243.39,225.74q11.16,0,18.07,6.79T268.37,250a25.18,25.18,0,0,1-3.16,12.71,21.76,21.76,0,0,1-8.72,8.56,28,28,0,0,1-13.43,3q-10.4,0-17-5.72-8-6.89-8-18.42,0-10.73,7-17.55T243.39,225.74Zm.14,7.47a10.27,10.27,0,0,0-8.51,4q-4,5-4,13t3.69,12.61a11,11,0,0,0,16.88,0q3.74-4.74,3.73-12.68a24.34,24.34,0,0,0-1.59-9.38,12.66,12.66,0,0,0-4.32-5.68A10.17,10.17,0,0,0,243.53,233.21Z" style="fill:#255025"/><path d="M273.18,226.55h28.93a41.57,41.57,0,0,1,6.11.5,15.29,15.29,0,0,1,6,2.22,12.41,12.41,0,0,1,4.16,4.34,11.9,11.9,0,0,1,1.48,5.92,10.91,10.91,0,0,1-3.82,8.65,18.94,18.94,0,0,1-9,4.32l9.65,11.23.4.51a9.67,9.67,0,0,0,1.72,1.7,5.42,5.42,0,0,0,1.55.79,8,8,0,0,0,2.15.23h2v6.49h-15L294.4,253.24h-3.9v9.35a10.63,10.63,0,0,0,.26,3.08,1.9,1.9,0,0,0,.86,1A5.6,5.6,0,0,0,294,267h2.15v6.49h-23V267h2.1a5.7,5.7,0,0,0,2.35-.35,2.3,2.3,0,0,0,1-1.06,10.16,10.16,0,0,0,.17-2.52V236.64a7.1,7.1,0,0,0-.25-2.21,1.37,1.37,0,0,0-.83-.85,4.38,4.38,0,0,0-1.86-.37l-.95,0h-1.76Zm17.32,7.7v12.14h6.95a18.81,18.81,0,0,0,6.14-.76,6.42,6.42,0,0,0,3.06-2.17,5.69,5.69,0,0,0,1-3.43,5.3,5.3,0,0,0-1-3.18,5.59,5.59,0,0,0-2.73-2,18.34,18.34,0,0,0-5.76-.64Z" style="fill:#255025"/><path d="M344,226.55h10.53l14.08,36.21a9.09,9.09,0,0,0,2,3.56,5.63,5.63,0,0,0,3.28.64v6.49H351.75V267l1.35,0a5,5,0,0,0,2.59-.49,1.41,1.41,0,0,0,.74-1.19,10.39,10.39,0,0,0-.64-2.49l-1.4-4.27H340.13l-1.76,4.74a8,8,0,0,0-.54,2,1.44,1.44,0,0,0,.39,1,2.41,2.41,0,0,0,1.26.64,20.63,20.63,0,0,0,3.16.13v6.49H324.49V267a7.92,7.92,0,0,0,2.55-.3,3.23,3.23,0,0,0,1.33-.91,8.58,8.58,0,0,0,1.16-2.25Zm-1.41,25.25h9.31l-4.53-12.88Z" style="fill:#255025"/><path d="M376.66,226.55h21.23L406,255.11l8.44-28.56h21.59V233h-2.32a3.45,3.45,0,0,0-2.61.79,4.53,4.53,0,0,0-.72,3v26.63a7.07,7.07,0,0,0,.2,2.19,1.91,1.91,0,0,0,.84.94,4.1,4.1,0,0,0,2,.4h2.66v6.49H413.51V267h1.75a7.35,7.35,0,0,0,2.59-.3,2,2,0,0,0,1-.93,5.66,5.66,0,0,0,.32-2.3V234.59l-11.43,38.86h-6.49l-11.06-37.62v28.51a2.79,2.79,0,0,0,.35,1.51,2.25,2.25,0,0,0,1,.83,5.7,5.7,0,0,0,2.1.28h2.25v6.49H376.66V267h1.9a6.22,6.22,0,0,0,2.45-.32,2,2,0,0,0,1-1,6.86,6.86,0,0,0,.32-2.54V236.8a7.1,7.1,0,0,0-.24-2.35,2.09,2.09,0,0,0-.91-1.08,4.23,4.23,0,0,0-1.93-.33h-2.57Z" style="fill:#255025"/><path d="M458.33,226.55h10.53l14.08,36.21a9.09,9.09,0,0,0,2,3.56,5.61,5.61,0,0,0,3.28.64v6.49H466.06V267l1.34,0a4.9,4.9,0,0,0,2.59-.49,1.39,1.39,0,0,0,.74-1.19,9.9,9.9,0,0,0-.64-2.49l-1.39-4.27H454.44l-1.76,4.74a8,8,0,0,0-.54,2,1.44,1.44,0,0,0,.39,1,2.33,2.33,0,0,0,1.26.64A20.63,20.63,0,0,0,457,267v6.49H438.79V267a8,8,0,0,0,2.56-.3,3.13,3.13,0,0,0,1.32-.91,8,8,0,0,0,1.16-2.25Zm-1.41,25.25h9.31l-4.54-12.88Z" style="fill:#255025"/></g></g></svg>