<svg xmlns="http://www.w3.org/2000/svg" viewBox="0 0 500 500"><title>Asset 10</title><g id="Layer_2" data-name="Layer 2"><g id="Layer_1-2" data-name="Layer 1"><rect width="500" height="500" style="fill:#fff"/><path d="M376.67,321.05c-49.52,0-106.12-3.31-158.72-6.32l-9.32-.53C118.22,309,35.27,318,34.42,318.05a5.66,5.66,0,0,1-1.23-11.25c.85-.07,84.72-9.16,176.06-3.85l9.32.54c89.18,5.16,190.22,11,246.52.31a5.65,5.65,0,0,1,2.15,11.09C443.37,319.43,411.79,321.05,376.67,321.05Z" style="fill:#ff750f"/><path d="M161.19,251.74c-1.85-10.09-6.16-15.48-15.87-15.48-12.7,0-16.32,9.86-16.63,15.48Zm-32.5,12.55c.54,12.71,6.78,18.41,17.87,18.41,8,0,14.48-4.93,15.71-9.4h17.56c-5.63,17.1-17.56,24.41-34,24.41-22.87,0-37.12-15.71-37.12-38.27,0-21.8,15.1-38.35,37.12-38.35,24.8,0,36.66,20.79,35.28,43.12l-52.45.08Z" style="fill:#299a21"/><rect x="189.3" y="195.44" width="20.02" height="100.35" style="fill:#299a21"/><polygon points="263.54 295.79 241.36 295.79 216.49 223.16 237.43 223.16 252.76 272.76 252.99 272.76 268.32 223.16 288.11 223.16 263.54 295.79" style="fill:#299a21"/><rect x="330.47" y="195.44" width="20.02" height="100.35" style="fill:#299a21"/><rect x="366.66" y="195.44" width="20.02" height="100.35" style="fill:#299a21"/><path d="M422.58,275.23c-2.55-3.62-3.78-8.63-3.78-15.1a32.14,32.14,0,0,1,3.08-14.71c2.47-4.7,5.78-7,10.24-7a11.73,11.73,0,0,1,10,5.09c2.62,3.62,3.92,8.85,3.92,15.32,0,6.63-1.38,12-4.08,15.94-2.54,3.62-5.77,5.47-9.93,5.47a10.89,10.89,0,0,1-9.47-5m-17.41-41.05c-6.16,7.08-9.32,16-9.32,26.57,0,10.16,2.85,18.56,8.47,24.87,5.7,6.47,13.25,9.78,22.34,9.78a29,29,0,0,0,19.33-7v5.54h21.56V223.63H446v6.31a26,26,0,0,0-17-6.47,30.37,30.37,0,0,0-23.8,10.71" style="fill:#299a21"/><rect x="297.04" y="223.17" width="20.02" height="72.62" style="fill:#299a21"/><path d="M300.58,195.44h12.87A3.53,3.53,0,0,1,317,199v14.87a3.53,3.53,0,0,1-3.54,3.54H300.58a3.53,3.53,0,0,1-3.54-3.54V199A3.59,3.59,0,0,1,300.58,195.44Z" style="fill:#ff750f"/><path d="M60.07,252.66c5.39,0,9.4.69,11.94,1.85,4.23,2.08,6.24,5.54,6.24,11.09a12.15,12.15,0,0,1-4.86,10.32C70.78,278,66.31,279,60.15,279H54.91V252.58l5.16.08Zm-.77-39.2c7,0,9.55.69,10.4,1.23,3.15,1.62,4.62,4.16,4.62,8a11.37,11.37,0,0,1-4.39,9.17c-3.08,2.54-7.55,3.77-13.4,3.77H54.91V213.46ZM31.11,196.52v99.19h29.5c11.63,0,20.25-1.54,26.42-4.7,10.7-5.46,16.09-13.94,16.09-25.18,0-10.86-4.77-18.56-14.17-23a27.52,27.52,0,0,0-4.39-1.69c8.4-4.78,12.78-11.86,12.78-21.41,0-8.63-3.61-15-10.85-19.1-4.93-2.77-13-4.08-24.8-4.08Z" style="fill:#299a21"/><path d="M466.17,213.92a5.65,5.65,0,0,1-2.7-.69l-115.37-62a8.3,8.3,0,0,0-7.93,0l-114.9,60.31a5.65,5.65,0,1,1-5.24-10l114.9-60.3a19.8,19.8,0,0,1,18.56.08l115.37,62a5.65,5.65,0,0,1-2.69,10.62Z" style="fill:#ff750f"/></g></g></svg>