<svg xmlns="http://www.w3.org/2000/svg" viewBox="0 0 500 500"><title>Asset 15</title><g id="Layer_2" data-name="Layer 2"><g id="Layer_1-2" data-name="Layer 1"><rect width="500" height="500" style="fill:#fff"/><g id="g10"><g id="g12"><g id="g14"><g id="g20"><path id="path22" d="M489.44,252.53a8.51,8.51,0,0,0-3.52-1.71,7.2,7.2,0,0,0-4.49.43c-1.6.75-3.95,2-4.81,3.31a19.28,19.28,0,0,0-3,5.13c-.75,2.25-1.81,10.47-2,13.25s-.75,9.62-.75,9.62l-14.31-.11L459.21,242l13.78-.11-.53,7.16s2.35-2.24,3.42-3.1a30.26,30.26,0,0,1,5.87-3.42c1.82-.53,4.06-1.39,5.24-1.39s3.09-.1,3.09-.1Z" style="fill:#ed1c24"/></g><g id="g24"><path id="path26" d="M436.66,249.25c-1.39-.86-2.46-2.14-8-1.5a13.11,13.11,0,0,0-10,6,16.65,16.65,0,0,0-2.78,7.15h8a42.76,42.76,0,0,0,8.44-1.28c2.56-.64,5.45-1.92,6.41-4.16a5.24,5.24,0,0,0-2-6.2m13.24-2.14a11.76,11.76,0,0,1,1.5,10.69c-1,2.77-2.56,3.95-5.66,6-2.78,1.81-6.95,2.56-11.11,2.78s-19.13.53-19.13.53a11.72,11.72,0,0,0,0,3.74,4.8,4.8,0,0,0,3.74,4.06,34.75,34.75,0,0,0,7.69,1.17,61.89,61.89,0,0,0,11.54-1.17c2.67-.75,7-2,7-2l-1.06,9.08s-1.93.32-4.6.86a103.06,103.06,0,0,1-11.43,1.7,58.88,58.88,0,0,1-14.21-1.28,13.75,13.75,0,0,1-9.72-7.16A25.12,25.12,0,0,1,402,265.49a30.33,30.33,0,0,1,4.49-14.64c1.39-2.46,6.52-6.09,9-7.16a46.3,46.3,0,0,1,12.29-3.31,42.35,42.35,0,0,1,11.32.43c3.74.75,8.34,3.1,10.79,6.3" style="fill:#ed1c24"/></g><g id="g28"><path id="path30" d="M380.18,232.29l14.31-.11-.43,9h5.56l-1.07,10.37H393l-2.57,31.09H375.26l2.67-30.88h-3.42l.22-10.58h4.59Z" style="fill:#ed1c24"/></g><g id="g32"><path id="path34" d="M363.94,282.82H348.45s1.17-14,1.28-17a103.5,103.5,0,0,0,.21-11.11c-.21-.74-1.17-3-2.88-3.63a7.59,7.59,0,0,0-4.27-.32,9.92,9.92,0,0,0-4.81,2.14,17.9,17.9,0,0,0-4.06,5.34c-1.07,2.24-1.71,7.16-1.92,9s-1.29,15.6-1.29,15.6H316.08l3-41h13.78l-.53,7.15a31.14,31.14,0,0,1,5.77-4.7c3.63-1.92,6.3-3.31,12.07-3.52a16.7,16.7,0,0,1,8,1.71,19.57,19.57,0,0,1,5.88,4.59,9.6,9.6,0,0,1,1.71,6.3c-.43,2.57-1.82,29.49-1.82,29.49" style="fill:#ed1c24"/></g><g id="g36"><path id="path38" d="M339.72,195.93,275,216.76l-.43-.64-.22-.85-1.6-1.18,1.18-.42.42-.86,58.23-25.75,1.07.11,1,.53-.11.54.22.21a1.57,1.57,0,0,1,.42,1c0,.43.75-.1.75.32s-1.07,1.18-1.07,1.18,0,.53.32.64a6.8,6.8,0,0,1,1,.53l.32.75.42.43.54.43s.75-.32,1.07,0a1.29,1.29,0,0,0,.85.32,1.45,1.45,0,0,0,.75-.22l.21.32-1.71,1.61Z" style="fill:#ed1c24"/></g><g id="g40"><path id="path42" d="M307.92,178.18l.32.75-43.69,32.8-1.07-.53-1.07-.11.11-.75-.75-.53-.75-.32,20.52-19,13.24-12.18,6.52-5.77.21.75h.54l.43.75h1a2.66,2.66,0,0,1,.42,1.17,12.16,12.16,0,0,0-1.06,1.71s.64-.32,1.49-.64a8.81,8.81,0,0,0,1.82-1.39l.53.43.64.21.22.64a3.07,3.07,0,0,1,1,0,9.87,9.87,0,0,1,.64.86,4.25,4.25,0,0,1-.54.64c-.42.32-.64.53-.64.53" style="fill:#ed1c24"/></g><g id="g44"><path id="path46" d="M303.87,175.32v0" style="fill:#ed1c24"/></g><g id="g48"><path id="path50" d="M276.08,168.24v1.38l-23,39.53-.75-.1-.53.1-1.07-.32.11-.74-.53-.43-1-.22,17.85-40.38L268,167l1.5-1.71.21.64h.75l.21.75.32.43,1.5-.21.53-.54.32-.75.65-.32.53.54.11.21.53.54-.11.53.11.85Z" style="fill:#ed1c24"/></g><g id="g52"><path id="path54" d="M242.33,207.58h-.65c-.53,0-1.06-.75-1.06-.75l-1.07.22-.43-.43-.21-.64-.64-.53-1.82-37.82,1-.22.11-.75a5.37,5.37,0,0,1,1.07-.85c.32-.11.32.43.32.43l.75.21.85-.64.64.21,1-.53,1,1,.64.75.75-.22.43.65s-.11,2.77-.32,6.08c-.64,10.9-2.24,33.87-2.24,33.87" style="fill:#ed1c24"/></g><g id="g56"><path id="path58" d="M230.32,209l-.74-.21-1-.86-.32.75s-1-1.17-1.49-1.71a9.47,9.47,0,0,0-1.18-1L210.45,175.1s.32-.53.64-.53a1.09,1.09,0,0,1,.75.43,5.7,5.7,0,0,1-.21-1.61c.21-.32,1,.22,1,.22l.11-.54,1,.65.85.32-.11-1.71h1.07l.75.85,1,.11.86.64,12.6,32.9-.1.65Z" style="fill:#ed1c24"/></g><g id="g60"><path id="path62" d="M218.32,211.3c-.21.43.11.64.32,1.07s0,.11-1.07,0-2.78-1.71-3.52-2.57-23.19-23.07-23.19-23.07l.64-.11,1,.75a10.92,10.92,0,0,1,.86-1c.53-.54-.43-.75-.43-.75s.54-.43,1.28-1-.32-.54-.1-.75c.53-.43.1-.64.42-.85s.75.1,1.18,0,.43,1.06,1.39,1.06,11,12.72,11,12.72l11,13.57a5.94,5.94,0,0,0-.75.85" style="fill:#ed1c24"/></g><g id="g64"><path id="path66" d="M207.65,216.24c-.11.43-.75.54-.75.54v1.28L177.63,204.6s.64-.43.21-.75a14.13,14.13,0,0,0-1.5-.85l-.32-.33a7.77,7.77,0,0,1,1.29-.21,10.88,10.88,0,0,1,1.17.11l-.75-.75-.42-.43a.69.69,0,0,1,.42-.42,9.19,9.19,0,0,1,1.5-.11l-.32-.75-.11-.43s-.1-.1.86-.1,28.09,15.7,28.09,15.7a5,5,0,0,1-.1,1" style="fill:#ed1c24"/></g><g id="g68"><path id="path70" d="M197.2,220.36a5.67,5.67,0,0,0,1.71,1.06c.54.11,1.07.86,1.07.86s0,.64-.53.75-28.64-.32-28.64-.32l-.53-.43a10.88,10.88,0,0,0-1.17-.11c-.43-.1.42-.75.42-.75l-1-.42s-1-.32-1.17-.64a.33.33,0,0,1,.21-.43l2-.11-1.07-.75a1.82,1.82,0,0,1,.54-.74,6.23,6.23,0,0,1,1.7-.32l-.32-.54.43-.32-.64-.43s.11,0,.86-.1,23.71,3.2,24.25,3.31a5.06,5.06,0,0,1,1.81.43" style="fill:#ed1c24"/></g><g id="g72"><path id="path74" d="M177,240.86a18.5,18.5,0,0,1,9.08,2.78c2.35,1.6,4.49,4,4.91,5.77,1,4.38.43,9.61,0,15.06s-1,18.38-1,18.38H174.67s1.49-18.48,1.39-21.26,0-6.84-.43-7.91a4.74,4.74,0,0,0-3.74-2.88,11.27,11.27,0,0,0-5.56.85,14.8,14.8,0,0,0-5.34,4.81,21,21,0,0,0-2.56,7.48c-.32,1.71-.54,5.13-.86,7.48s-1,11.54-1,11.54H142.08l2.89-41h13.88l-.74,7.37a28.71,28.71,0,0,1,6.3-5c3.63-2,5.66-3.42,12.61-3.42" style="fill:#ed1c24"/></g><g id="g76"><path id="path78" d="M109.51,264.24a19,19,0,0,0-5,1.6c-1.28.75-3.85,2.25-4.17,5.35a4.37,4.37,0,0,0,3.21,4.8,21.34,21.34,0,0,0,8.76.64,12.86,12.86,0,0,0,7.9-3.84,8.41,8.41,0,0,0,2.35-4.81,34.09,34.09,0,0,0,.22-4c-.11.1-11.44,0-13.25.21M134.4,283H122l.43-6.3s-4.17,3.95-6.84,5.13-5.77,2.14-12.29,2-9.19-1.71-11.43-3.1-4.06-3-4.81-6.09a13.66,13.66,0,0,1,.64-8.23,11,11,0,0,1,5.77-5.76c3.85-1.93,10.9-3,13.46-3.32,2.89-.32,16.46-.32,16.46-.32s.75-3.52,0-5.23a6.09,6.09,0,0,0-2.89-2.46,27.68,27.68,0,0,0-9.19-1.39,59.25,59.25,0,0,0-11.53,1.71c-2.14.64-6.09,2.14-6.09,2.14l.21-9s12.5-2.67,17.84-2.67c4.17,0,16.13.43,20,4.81,3.31,3.85,3.74,4.81,4.17,7.48a50.2,50.2,0,0,1,.32,10.68C136,266.91,134.4,283,134.4,283" style="fill:#ed1c24"/></g><g id="g80"><path id="path82" d="M60,237.3a15.12,15.12,0,0,0-9.4-5.23c-2.88-.32-18.48-.21-18.48-.21l-4,42.2s16,.53,20.84-1.71c4.06-1.93,12.92-6,14.74-15.17S64.94,242.86,60,237.3m6.52,41.88c-7,4-15.6,5.13-22.54,5.56-2.35.11-34.08-.32-34.08-.32l5.66-63.14s21,0,27.24.21,10.47.32,15.6,1.28C65,224,70.28,226.51,74,229.93a27.22,27.22,0,0,1,9.72,19.34c.53,8.55-1.18,15-4.27,19.23C76.05,273,73.91,275,66.54,279.18" style="fill:#ed1c24"/></g><g id="g84"><path id="path86" d="M213.79,226.4A47.76,47.76,0,0,1,237.93,219c14.86-.1,23.72,4.17,23.72,4.17l-5.34,9s-8-1.81-13.67-1.71c-6.73.11-11.65,1.93-15.18,4.28s-7.47,7.15-9.08,13.78a23.06,23.06,0,0,0,1.5,15.17c1.92,4.27,7.37,8.44,13.89,9.4,7.8,1.07,22.33-1.82,22.33-1.82l-.86,11a87.09,87.09,0,0,1-9.4,1.6,53,53,0,0,1-20.73-.64c-12.07-2.78-18.69-8.55-22.11-13.57-4.81-6.94-5.88-18.05-3-26.6,3.31-10.15,9.51-13.67,13.78-16.67" style="fill:#ed1c24"/></g><g id="g88"><path id="path90" d="M291.88,260.07c4.28-1.18,7.38-2.88,7.7-5.45a5.53,5.53,0,0,0-1.82-5,9.87,9.87,0,0,0-6-1.92,18.55,18.55,0,0,0-8.76,2.24,17.84,17.84,0,0,0-4.92,5.66,24.24,24.24,0,0,0-1.6,5.34s11.54.22,15.38-.85M273.61,245a39.49,39.49,0,0,1,9.73-3.74,41.55,41.55,0,0,1,12.18-1.07,23.53,23.53,0,0,1,11.75,3.74,10.84,10.84,0,0,1,5.23,7.26,13.19,13.19,0,0,1-.42,7.27c-.65,1.81-3.42,4.06-6.41,5.77s-8.23,2.24-11,2.45c-1.17.11-18.48.43-18.48.43a19.5,19.5,0,0,0,0,3.63,5.42,5.42,0,0,0,2.88,4,23.2,23.2,0,0,0,7.48,1.49,62.07,62.07,0,0,0,10.79-.85,85,85,0,0,0,9.08-2.46l-.85,8.87s-4.81,1.17-8.23,1.71a71.84,71.84,0,0,1-14.42.85,28.94,28.94,0,0,1-13-3.31c-2.25-1.39-5-4.91-6.31-9.4s-.75-10.79,1.28-16A23,23,0,0,1,273.61,245" style="fill:#ed1c24"/></g><g id="g92"><path id="path94" d="M284.37,221.21a18.67,18.67,0,0,1,4.17-.86c1.5,0,24.47-2.77,27.35-3.09s24.89-2.89,28-3.32,4.7-.42,5.34.43.22,1.18.54,1.71.64.85.64.85-1.18.33-1.18.75a1.67,1.67,0,0,0,.43,1.39c.43.32.11,1,.32,1.28s-.75.86-.75.86-1.17.21-1.17.85a15.71,15.71,0,0,0,.32,2.14l-23.83.21-29.27.22s-10.47.53-10.79.21-.21-.64-.11-1.17a6.15,6.15,0,0,0,0-2.46" style="fill:#ed1c24"/></g></g></g></g></g></g></svg>