<svg xmlns="http://www.w3.org/2000/svg" viewBox="0 0 500 500"><title>Asset 7</title><g id="Layer_2" data-name="Layer 2"><g id="Layer_1-2" data-name="Layer 1"><rect width="500" height="500" style="fill:#fff"/><path d="M37.85,150h23q11,0,16.35,5.83t5.37,17.08v46.88q0,11.26-5.37,17.09T60.9,242.73h-23Zm14.57,13.24v66.22h8.21a7.34,7.34,0,0,0,5.43-2q2-2,2-7V172.27q0-5-2-7a7.34,7.34,0,0,0-5.43-2Z" style="fill:#252524"/><path d="M103.4,189.09h20v13.24h-20v27.15h25.17v13.25H88.84V150h39.73v13.24H103.4Z" style="fill:#252524"/><path d="M132.67,172.27Q132.67,161,138,155t16.09-6q10.73,0,16.09,6t5.37,17.28v3.57H161.8v-4.5q0-5-1.92-7.08a8,8,0,0,0-10.72,0q-1.92,2.06-1.92,7.08a16.35,16.35,0,0,0,2.12,8.41,34.69,34.69,0,0,0,5.29,6.89q3.18,3.24,6.82,6.49a64.42,64.42,0,0,1,6.82,7.08,36.07,36.07,0,0,1,5.3,8.74,28.94,28.94,0,0,1,2.12,11.53q0,11.25-5.5,17.28t-16.22,6q-10.73,0-16.22-6t-5.5-17.28v-6.36H146v7.28q0,5,2.06,7a8.58,8.58,0,0,0,11,0q2.06-2,2-7A16.44,16.44,0,0,0,159,213a35.31,35.31,0,0,0-5.29-6.88q-3.18-3.26-6.82-6.49a65.51,65.51,0,0,1-6.83-7.09,36.17,36.17,0,0,1-5.29-8.74A28.71,28.71,0,0,1,132.67,172.27Z" style="fill:#252524"/><path d="M181,150h14.57v92.71H181Z" style="fill:#252524"/><path d="M225,191.07h20.39v29.41q0,11.25-5.49,17.28t-16.23,6q-10.72,0-16.22-6t-5.5-17.28V172.27q0-11.25,5.5-17.28t16.22-6q10.73,0,16.23,6t5.49,17.28v9H231.59v-9.93c0-3.35-.69-5.71-2.05-7.08a8.37,8.37,0,0,0-11,0q-2.06,2.06-2,7.08V221.4q0,5,2,7a8.6,8.6,0,0,0,11,0c1.36-1.32,2.05-3.66,2.05-7V204.32H225Z" style="fill:#252524"/><path d="M264.69,175.58v67.15H251.58V150h18.28l15,55.49V150h13v92.71h-15Z" style="fill:#252524"/><path d="M341.9,191.21h18.81v13.24H341.9v38.28H327.33V150h38.54v13.24h-24Z" style="fill:#252524"/><path d="M368.65,172.27q0-11.25,5.69-17.28t16.43-6q10.73,0,16.42,6t5.69,17.28v48.21q0,11.25-5.69,17.28t-16.42,6q-10.74,0-16.43-6t-5.69-17.28Zm14.57,49.13q0,5,2,7.09a8.39,8.39,0,0,0,11,0q2.06-2.06,2.06-7.09V171.34q0-5-2.06-7.08a8.36,8.36,0,0,0-11,0q-2.06,2.06-2,7.08Z" style="fill:#252524"/><path d="M449.7,242.73c-.18-.62-.36-1.2-.53-1.73a13.85,13.85,0,0,1-.47-2,24.33,24.33,0,0,1-.26-3.05c-.05-1.23-.07-2.78-.07-4.63V216.77c0-4.33-.75-7.37-2.25-9.14s-3.93-2.65-7.28-2.65h-5v37.75H419.24V150h22q11.38,0,16.49,5.3t5.1,16v7.29q0,14.3-9.54,18.8a13,13,0,0,1,7.62,7.35,33.17,33.17,0,0,1,2.05,12.38v14.31a58.69,58.69,0,0,0,.27,6,19,19,0,0,0,1.32,5.24Zm-15.9-79.47v28.48h5.7a9.16,9.16,0,0,0,6.42-2.12c1.55-1.41,2.32-4,2.32-7.68V172.8c0-3.36-.6-5.78-1.79-7.29s-3.07-2.25-5.63-2.25Z" style="fill:#252524"/><path d="M37.47,257.27H52V350H37.47Z" style="fill:#252524"/><path d="M72.56,282.84V350H59.45V257.27H77.73l15,55.5v-55.5h13V350h-15Z" style="fill:#252524"/><path d="M109.11,257.27h45v13.25H138.91V350H124.34V270.52H109.11Z" style="fill:#252524"/><path d="M172.27,296.34h20v13.25h-20v27.15h25.17V350H157.71V257.27h39.73v13.25H172.27Z" style="fill:#252524"/><path d="M233.85,350c-.18-.62-.35-1.19-.53-1.72a13.83,13.83,0,0,1-.46-2,25.91,25.91,0,0,1-.27-3c0-1.24-.06-2.78-.06-4.64V324c0-4.32-.75-7.37-2.25-9.13s-3.93-2.65-7.29-2.65h-5V350H203.39V257.27h22q11.38,0,16.49,5.3t5.09,16v7.28q0,14.31-9.53,18.81A13,13,0,0,1,245,312a33.16,33.16,0,0,1,2.06,12.38v14.3a59,59,0,0,0,.26,6,19.35,19.35,0,0,0,1.33,5.23ZM218,270.52V299h5.7a9.14,9.14,0,0,0,6.42-2.12c1.54-1.41,2.32-4,2.32-7.68v-9.14q0-5-1.79-7.28T225,270.52Z" style="fill:#252524"/><path d="M253.58,257.27h14.57V350H253.58Z" style="fill:#252524"/><path d="M274.5,279.52q0-11.25,5.7-17.28t16.42-6q10.72,0,16.42,6t5.69,17.28v48.21Q318.73,339,313,345t-16.42,6q-10.72,0-16.42-6t-5.7-17.28Zm14.57,49.14c0,3.35.68,5.72,2.05,7.08a8.36,8.36,0,0,0,11,0c1.37-1.36,2.06-3.73,2.06-7.08V278.6q0-5-2.06-7.09a8.39,8.39,0,0,0-11,0q-2.06,2.06-2.05,7.09Z" style="fill:#252524"/><path d="M355.55,350c-.18-.62-.36-1.19-.53-1.72a12.61,12.61,0,0,1-.46-2,22.19,22.19,0,0,1-.27-3c-.05-1.24-.07-2.78-.07-4.64V324c0-4.32-.75-7.37-2.25-9.13s-3.93-2.65-7.28-2.65h-5V350H325.09V257.27h22q11.39,0,16.49,5.3t5.1,16v7.28q0,14.31-9.54,18.81a13,13,0,0,1,7.62,7.35,33.17,33.17,0,0,1,2.05,12.38v14.3a58.76,58.76,0,0,0,.27,6,19,19,0,0,0,1.32,5.23Zm-15.89-79.46V299h5.69a9.11,9.11,0,0,0,6.42-2.12q2.33-2.12,2.32-7.68v-9.14c0-3.35-.59-5.78-1.79-7.28s-3.07-2.25-5.62-2.25Z" style="fill:#252524"/></g></g></svg>