<svg xmlns="http://www.w3.org/2000/svg" viewBox="0 0 500 500"><title>Asset 4</title><g id="Layer_2" data-name="Layer 2"><g id="Layer_1-2" data-name="Layer 1"><rect width="500" height="500" style="fill:#fff"/><path d="M402.63,168.85A81.16,81.16,0,0,0,321,249.47v.88a81.15,81.15,0,1,0,81.68-81.5ZM402.1,279a28.79,28.79,0,1,1-.53-57.57V221A29,29,0,1,1,402.1,279Z" style="fill:#ec2f26"/><path d="M98.34,168.85a81.15,81.15,0,0,0-81.59,80.71v.79a81.15,81.15,0,1,0,81.59-81.5ZM97.81,279a28.79,28.79,0,1,1-.35-57.57h0V221A29,29,0,0,1,97.81,279Z" style="fill:#ec2f26"/><polygon points="249.51 219.27 224.7 169.91 166.86 169.91 220.99 277.81 220.99 328.59 278.13 328.59 278.13 277.81 332.17 169.91 274.24 169.91 249.51 219.27" style="fill:#ec2f26"/></g></g></svg>