<?xml version="1.0" encoding="utf-8"?>
<!-- Generator: Adobe Illustrator 24.2.3, SVG Export Plug-In . SVG Version: 6.00 Build 0)  -->
<svg version="1.1" id="Layer_1" xmlns="http://www.w3.org/2000/svg" xmlns:xlink="http://www.w3.org/1999/xlink" x="0px" y="0px"
	 viewBox="0 0 426 284" style="enable-background:new 0 0 426 284;" xml:space="preserve">
<style type="text/css">
	.st0{fill-rule:evenodd;clip-rule:evenodd;fill:none;}
	.st1{fill:#FF750F;}
	.st2{fill:#299A21;}
</style>
<rect x="0" class="st0" width="426" height="284"/>
<g>
	<path class="st1" d="M313.7,203.1c-39.4,0-84.4-2.6-126.2-5l-7.4-0.4c-71.9-4.1-137.8,3-138.5,3.1c-2.5,0.2-4.7-1.6-4.9-4.1
		c-0.2-2.4,1.5-4.5,3.9-4.8c0.7-0.1,67.3-7.3,140-3.1l7.4,0.4c70.9,4.1,151.2,8.7,196,0.2c2.4-0.4,4.8,1.2,5.2,3.7
		c0.4,2.4-1.1,4.6-3.5,5.1C366.7,201.8,341.6,203.1,313.7,203.1z"/>
	<path class="st2" d="M142.4,148c-1.5-8-4.9-12.3-12.6-12.3c-10.1,0-13,7.8-13.2,12.3H142.4z M116.5,158
		c0.4,10.1,5.4,14.6,14.2,14.6c6.4,0,11.5-3.9,12.5-7.5h14c-4.5,13.6-14,19.4-27,19.4c-18.2,0-29.5-12.5-29.5-30.4
		c0-17.3,12-30.5,29.5-30.5c19.7,0,29.1,16.5,28,34.3L116.5,158L116.5,158z"/>
	<rect x="164.7" y="103.3" class="st2" width="15.9" height="79.8"/>
	<polygon class="st2" points="223.7,183 206.1,183 186.3,125.3 203,125.3 215.2,164.7 215.3,164.7 227.5,125.3 243.3,125.3 	"/>
	<rect x="276.9" y="103.3" class="st2" width="15.9" height="79.8"/>
	<rect x="305.7" y="103.3" class="st2" width="15.9" height="79.8"/>
	<path class="st2" d="M350.2,166.7c-2-2.9-3-6.9-3-12c-0.1-4,0.7-8,2.4-11.7c2-3.7,4.6-5.6,8.1-5.6c3.2-0.1,6.2,1.4,7.9,4
		c2.1,2.9,3.1,7,3.1,12.2c0,5.3-1.1,9.5-3.2,12.7c-2,2.9-4.6,4.3-7.9,4.3C354.6,170.8,351.8,169.3,350.2,166.7 M336.3,134.1
		c-4.9,5.6-7.4,12.7-7.4,21.1c0,8.1,2.3,14.8,6.7,19.8c4.5,5.1,10.5,7.8,17.8,7.8c5.6,0.1,11.1-1.9,15.4-5.6v4.4h17.1v-55.9h-17.1v5
		c-3.7-3.3-8.5-5.1-13.5-5.1C348,125.4,341,128.5,336.3,134.1"/>
	<rect x="250.4" y="125.3" class="st2" width="15.9" height="57.7"/>
	<path class="st1" d="M253.2,103.3h10.2c1.5,0,2.8,1.2,2.8,2.8c0,0,0,0,0,0v11.8c0,1.5-1.2,2.8-2.8,2.8c0,0,0,0,0,0h-10.2
		c-1.5,0-2.8-1.2-2.8-2.8c0,0,0,0,0,0v-11.8C250.4,104.6,251.6,103.3,253.2,103.3z"/>
	<path class="st2" d="M62,148.8c4.3,0,7.5,0.5,9.5,1.5c3.4,1.7,5,4.4,5,8.8c0.2,3.2-1.3,6.3-3.9,8.2c-2.1,1.7-5.6,2.4-10.5,2.4h-4.2
		v-21L62,148.8z M61.4,117.6c5.6,0,7.6,0.5,8.3,1c2.5,1.3,3.7,3.3,3.7,6.4c0,2.8-1.2,5.5-3.5,7.3c-2.4,2-6,3-10.7,3h-1.3v-17.6H61.4
		z M39,104.1V183h23.5c9.2,0,16.1-1.2,21-3.7c8.5-4.3,12.8-11.1,12.8-20c0-8.6-3.8-14.8-11.3-18.3c-1.1-0.5-2.3-1-3.5-1.3
		c6.7-3.8,10.2-9.4,10.2-17c0-6.9-2.9-11.9-8.6-15.2c-3.9-2.2-10.3-3.2-19.7-3.2L39,104.1z"/>
	<path class="st1" d="M384.8,118c-0.8,0-1.5-0.2-2.1-0.5l-91.7-49.3c-2-1.1-4.3-1.1-6.3,0l-91.3,47.9c-2.1,1.2-4.9,0.5-6.1-1.6
		c-1.2-2.1-0.5-4.9,1.6-6.1c0.1-0.1,0.2-0.1,0.3-0.2l91.3-47.9c4.6-2.4,10.2-2.4,14.8,0.1l91.7,49.3c2.2,1.2,3,3.9,1.8,6.1
		C388,117.1,386.5,118,384.8,118L384.8,118z"/>
</g>
</svg>
