<?xml version="1.0" encoding="utf-8"?>
<!-- Generator: Adobe Illustrator 24.2.3, SVG Export Plug-In . SVG Version: 6.00 Build 0)  -->
<svg version="1.1" id="Layer_1" xmlns="http://www.w3.org/2000/svg" xmlns:xlink="http://www.w3.org/1999/xlink" x="0px" y="0px"
	 viewBox="0 0 426 284" style="enable-background:new 0 0 426 284;" xml:space="preserve">
<style type="text/css">
	.st0{fill-rule:evenodd;clip-rule:evenodd;fill:none;}
	.st1{fill:#2A3544;stroke:#2A3544;stroke-width:0.5;}
</style>
<rect x="0.5" y="0" class="st0" width="426" height="284"/>
<g id="Design">
	<g id="Asset-board" transform="translate(-213.000000, -67.000000)">
		<path id="Taphuys_logo_wit" class="st1" d="M587.1,177.2c0.5,0,1.1,0.1,1.5,0.2c0.6,0.1,1.2,0.2,1.9,0.4c2.5,0.7,4.6,2,6.4,4l0,0
			l0.3,0.4l0.3,0.4c2,2.6,2.9,5.6,2.9,7.5l0,0v7.2h-11.5v-4.7c0-0.6-0.3-1.1-0.6-1.6c-0.4-0.4-1.1-0.8-1.7-0.8
			c-0.8,0-1.5,0.4-1.9,1.1c-0.3,0.4-0.4,0.8-0.4,1.3c0,0.3,0,0.5,0.1,0.7l0,0v0.1c0.4,3.2,3.9,7.5,6.8,10.9c0.2,0.2,0.3,0.4,0.4,0.5
			c2.3,2.7,4.7,5.6,6.5,8.6c2.5,4,3.7,7.8,3.7,11.5c0,4.2-1.7,8.2-4.7,11.3c-0.1,0.1-0.2,0.2-0.3,0.2l0,0v0.1l-0.4,0.3l-0.3,0.3
			c-2.9,2.6-6.6,4-10.5,4c-1.2,0-2.6-0.2-3.9-0.5c-2.3-0.6-4.4-1.9-6.2-3.6l0,0l-0.3-0.4l-0.3-0.3c-2.5-2.8-3.6-6.2-3.6-8.1l0,0
			v-7.1h11.4v4.1c0,1,0.5,1.9,1.3,2.5c0.4,0.3,1,0.4,1.6,0.4c0.5,0,1.1-0.2,1.6-0.5c0.8-0.5,1.2-1.4,1.2-2.4c0-1.9-1.1-3.5-1.2-3.9
			c-1.4-2.5-3.8-5.4-5.7-7.7c-0.1-0.1-0.2-0.2-0.3-0.4c-4.9-5.7-10.3-12.3-10.3-20.4c0-3.7,1.5-7.5,4.1-10.3l0,0l0.4-0.4h0.1
			l0.2-0.3c2.8-2.7,6.4-4.3,10.2-4.5l0,0H587.1z M505.8,177.7v47.1c0.1,0.7,0.4,1.4,0.9,1.9c0.6,0.7,1.6,1.1,2.6,1.1
			c1,0,1.9-0.4,2.6-1.1c0.4-0.5,0.7-1.1,0.8-1.7l0,0V225c0.1-0.3,0.2-0.5,0.2-0.9l0,0v-46.4H526v46.4c0,4.3-1.7,8.4-4.7,11.5l0,0
			l-0.6,0.6c-3.1,2.9-7.2,4.6-11.5,4.6c-4.3,0-8.4-1.7-11.5-4.6l0,0l-0.6-0.6c-3-3.2-4.6-7.2-4.6-11.5l0,0v-46.4H505.8z
			 M306.6,177.7v13.2H298v49.3h-13.2v-49.3h-8.7v-13.2H306.6z M544.2,177.7l4.5,22l4.5-22H567l-11.7,39.8v22.7h-13.2v-22.7
			l-11.3-39.8H544.2z M462.2,177.7v25.1h7.3v-25.1h13.2v62.6h-13.2v-26h-7.3v26h-13.2v-62.6H462.2z M423.6,177.7
			c4,0,7.7,1.5,10.6,4.1l0,0l0.6,0.6c2.8,2.9,4.3,6.7,4.3,10.7l0,0v9.6c0,4.3-1.8,8.5-4.9,11.4l0,0l-0.4,0.3l-0.4,0.4v-0.1
			c-2.8,2.4-6.3,3.6-10,3.6l0,0h-2.3v21.9h-13.2v-62.6H423.6z M387.9,177.7l10.2,62.6h-13.1l-1.1-8.5h-5.7l-1.1,8.5H364l10.7-62.6
			H387.9z M359.3,177.7v13.2h-8.6v49.3h-13.2v-49.3h-8.7v-13.2H359.3z M579.7,232.5l-3.1,3.2l-0.4,0.4c1.6,1.7,3.5,2.8,5.7,3.3
			c1.1,0.4,2.4,0.5,3.6,0.5c3.6,0,7.2-1.3,9.9-3.7l0,0l-3.8-3.7c0,0-0.1,0-0.1,0.1c-0.1,0-0.2,0.1-0.3,0.2c0,0-0.1,0-0.1,0.1
			c-0.1,0-0.2,0.1-0.3,0.1c0,0.1-0.1,0.1-0.2,0.1c0,0.1-0.1,0.1-0.2,0.2c0,0-0.1,0-0.2,0.1c0,0-0.1,0.1-0.2,0.1s-0.1,0.1-0.2,0.1
			c-0.1,0.1-0.1,0.1-0.2,0.1c-0.1,0.1-0.2,0.1-0.2,0.1c-0.1,0.1-0.2,0.1-0.3,0.1c0,0.1-0.1,0.1-0.2,0.1c0,0.1-0.1,0.1-0.2,0.1
			c-0.1,0-0.1,0.1-0.2,0.1s-0.2,0-0.3,0.1l0,0h-0.2c0,0.1-0.1,0.1-0.2,0.1s-0.1,0.1-0.2,0.1l0,0h-0.3c0,0.1-0.1,0.1-0.2,0.1l0,0
			h-0.2c-0.1,0.1-0.2,0.1-0.3,0.1l0,0h-0.2c-0.1,0-0.2,0-0.2,0.1l0,0H586c-0.1,0-0.3,0.1-0.4,0.1c-0.1,0-0.3-0.1-0.4-0.1l0,0h-0.8
			c-0.1-0.1-0.1-0.1-0.2-0.1l0,0l-0.3,0c0,0-0.1,0-0.2-0.1l0,0l-0.2,0c-0.1,0-0.1,0-0.1-0.1l0,0h-0.3c-0.1,0-0.1-0.1-0.2-0.1
			s-0.2,0-0.2-0.1l0,0h-0.2c-0.1-0.1-0.2-0.1-0.3-0.1l0,0l-0.1,0c0,0-0.1,0-0.1,0l0,0l-0.1,0c0,0-0.1,0-0.1,0
			c-0.1,0-0.1-0.1-0.2-0.1s-0.1-0.1-0.2-0.1c-0.1,0-0.1-0.1-0.2-0.1l-0.1,0c0,0-0.1-0.1-0.1-0.1c-0.1-0.1-0.1-0.1-0.2-0.1
			c0,0,0,0-0.1-0.1l0,0l-0.1-0.1c-0.1,0-0.1,0-0.2-0.1c-0.1,0-0.1-0.1-0.2-0.1c-0.1-0.1-0.1-0.1-0.1-0.1l0,0l-0.1-0.1
			c-0.1-0.1-0.1-0.1-0.2-0.1c-0.1-0.1-0.1-0.1-0.1-0.1C580,232.7,579.9,232.6,579.7,232.5L579.7,232.5z M516.4,231.9L516.4,231.9
			L516.4,231.9l-0.1,0.1c0,0-0.1,0-0.1,0c0,0.1,0,0.1-0.1,0.1c0,0.1,0,0.1-0.1,0.1c0,0.1,0,0.1-0.1,0.1c0,0.1-0.1,0.1-0.1,0.1l0,0
			l-0.2,0.2c-0.1,0-0.1,0-0.1,0.1c-0.1,0-0.1,0-0.2,0.1l0,0h-0.1c0,0.1,0,0.1-0.1,0.1l0,0L515,233c-0.1,0-0.1,0-0.1,0.1l0,0h-0.2
			c0,0.1,0,0.1-0.1,0.1l0,0l-0.1,0.1h-0.1l-0.1,0.1c0,0-0.1,0-0.1,0c0,0,0,0.1-0.1,0.1c0,0-0.1,0-0.1,0.1l0,0H514l-0.1,0.1
			c-0.1,0-0.1,0-0.2,0c-0.1,0.1-0.2,0.1-0.2,0.2l0,0h-0.1l-0.1,0c0,0-0.1,0-0.1,0.1l0,0h-0.1c-0.1,0-0.1,0.1-0.2,0.1l0,0H513
			l-0.1,0.1h-0.1l-0.1,0c0,0-0.1,0-0.1,0.1l0,0h-0.3c0,0.1,0,0.1-0.1,0.1l0,0h-0.1c-0.1,0-0.1,0.1-0.2,0.1l0,0h-0.2l-0.1,0
			c0,0-0.1,0.1-0.1,0.1l0,0h-0.3c0,0-0.1,0-0.1,0.1l0,0h-0.4c-0.1,0-0.1,0-0.2,0.1l0,0h-0.7c-0.1,0-0.1,0.1-0.2,0.1l0,0h-1.2l-0.1,0
			c0,0-0.1,0-0.1,0l0,0h-0.7c0,0,0,0-0.1-0.1l0,0l0,0l0,0h-0.4c0-0.1-0.1-0.1-0.1-0.1l0,0h-0.3l-0.1-0.1l0,0h-0.3c0,0,0,0,0,0
			l-0.1-0.1h-0.3c-0.1-0.1-0.1-0.1-0.2-0.1l0,0h-0.1c0-0.1-0.1-0.1-0.1-0.1l0,0h-0.1l-0.1,0c0,0-0.1-0.1-0.1-0.1l0,0h-0.1
			c-0.1,0-0.1-0.1-0.2-0.1l0,0h-0.1c0-0.1-0.1-0.1-0.1-0.1l0,0H505l-0.1-0.1c-0.1-0.1-0.2-0.1-0.3-0.2l0,0h-0.1l-0.1-0.1
			c0,0-0.1,0-0.1,0l0,0l-0.1-0.1c0,0-0.1,0-0.1-0.1l0,0h-0.1l-0.1,0c0,0-0.1-0.1-0.1-0.1c0,0-0.1,0-0.1-0.1l0,0h-0.1
			c-0.1-0.1-0.1-0.1-0.1-0.1c-0.1,0-0.1-0.1-0.2-0.1l0,0c0,0,0,0-0.1-0.1c0,0-0.1,0-0.1-0.1l0,0h-0.1c0-0.1-0.1-0.1-0.1-0.1l0,0
			l-0.1-0.1l0,0c-0.1,0-0.1-0.1-0.2-0.1c0,0,0-0.1-0.1-0.1l0,0l-0.1-0.1c0,0-0.1,0-0.1-0.1c0,0-0.1,0-0.1-0.1l0,0h-0.1
			c0-0.1-0.1-0.1-0.1-0.2l0,0h-0.1c0,0,0-0.1-0.1-0.1l0,0v0.1l-3.7,3.7c2.9,2.7,6.8,4.3,10.9,4.3s7.9-1.6,10.9-4.3l0,0L516.4,231.9z
			 M414.7,234.7l-3.1,2.8l-1.9,1.9h10.2l-2-1.9L414.7,234.7z M371.4,234.7l-5.7,4.7h10.2L371.4,234.7z M390.7,234.7l-4.3,4.7h10
			L390.7,234.7z M291.4,234.2l-5.1,5.1h10.2L291.4,234.2z M455.6,234.2l-5.1,5.1h10.2L455.6,234.2z M476.1,234.2l-5.1,5.1h10.2
			L476.1,234.2z M548.7,234.2l-5.1,5.1h10.2l-5-4.9L548.7,234.2z M344.1,234.2l-5.1,5.1h10.2L344.1,234.2z M373.2,227.8l-1.2,6.2
			l4.7,4.8l0.9-7.3L373.2,227.8z M389,227.8l-4.1,3.7l0.9,7.3l4.4-4.8L389,227.8z M408.9,179.2v59.6l5.3-4.9v-49.4L408.9,179.2z
			 M415.1,213.3v20.6l5.3,4.9V218L415.1,213.3z M548.3,217.3l-5.3,0.5v20.9l5.3-5.3V217.3z M456,209.5v24l5.3,5.3V214L456,209.5z
			 M475.7,209.5l-5.3,4.5v24.8l5.3-5.3V209.5z M387.2,179l-5.5,5.5l9.3,49.3l6,4.9L387.2,179z M375.3,179l-10.2,59.7l5.9-4.9
			l9.7-49.3L375.3,179z M290.9,185.3l-5.3,5.3v48.1l5.3-5.3V185.3z M291.8,185.3v48.1l5.3,5.3v-48.1L291.8,185.3z M449.8,179.2v59.6
			l5.3-5.3v-49L449.8,179.2z M344.6,185.3v48.1l5.3,5.3v-48.1L344.6,185.3z M343.7,185.3l-5.3,5.3v48.1l5.3-5.3V185.3z M549.2,217.3
			v16.2l5.3,5.2v-20.9L549.2,217.3z M481.9,179.2l-5.3,5.3v49l5.3,5.3V179.2z M590.6,205.1l-3.8,3.7c3.2,3.8,6.4,7.6,7.8,11.5
			c0.1,0.1,0.1,0.2,0.1,0.3c0.2,0.4,0.4,0.9,0.4,1.3c0.1,0.3,0.1,0.5,0.2,0.8c0,0.2,0,0.4,0.1,0.5c0.1,0.5,0.1,1.1,0.1,1.6l0,0v0.9
			c-0.1,0.1-0.1,0.1-0.1,0.2l0,0v0.4c0,0.1-0.1,0.1-0.1,0.2l0,0v0.4l-0.1,0.1l0,0.3c-0.1,0.1-0.1,0.1-0.1,0.2l0,0v0.1
			c0,0.1-0.1,0.1-0.1,0.2l0,0v0.1c0,0,0,0.1-0.1,0.1l0,0v0.3c0,0,0,0-0.1,0.1l0,0l0,0l0,0.1c0,0,0,0.1-0.1,0.1l0,0l0,0.1
			c0,0,0,0.1-0.1,0.1l0,0v0.1l-0.1,0.1v0.1l-0.1,0.1c0,0.1,0,0.1,0,0.1c0,0.1,0,0.1-0.1,0.1c0,0.1,0,0.2-0.1,0.3l0,0v0.1
			c-0.1,0-0.1,0.1-0.1,0.1c0,0.1-0.1,0.1-0.1,0.1c0,0.1,0,0.1-0.1,0.2l0,0v0.1c-0.1,0-0.1,0.1-0.1,0.1c0,0.1-0.1,0.1-0.1,0.1
			c0,0.1-0.1,0.1-0.1,0.2l0,0l-0.1,0.1c0,0,0,0.1-0.1,0.1l0,0v0.1l-0.2,0.2c0,0.1-0.1,0.1-0.1,0.2c0,0-0.1,0-0.1,0.1l0,0l-0.1,0.1
			c0,0,0,0.1-0.1,0.1c0,0,0,0.1-0.1,0.1c0,0.1,0,0.1-0.1,0.1c0,0.1,0,0.1-0.1,0.1c0,0.1,0,0.1-0.1,0.1c0,0.1,0,0.1-0.1,0.2l0,0
			l-0.1,0.1c0,0-0.1,0-0.1,0.1c0,0-0.1,0-0.1,0.1l0,0l3.7,3.7c0.1,0,0.2-0.1,0.3-0.2c2.8-2.9,4.4-6.7,4.4-10.7
			c0-3.6-1.1-7.2-3.5-11.1c-1.9-3-4.2-5.8-6.5-8.5l0,0L590.6,205.1L590.6,205.1L590.6,205.1z M572.2,222.3v5.6
			c0,1.8,1.1,4.8,3.4,7.5l0,0l3.5-3.6c0-0.1-0.1-0.1-0.1-0.2c-0.1,0-0.1-0.1-0.1-0.1l0,0l-0.3-0.3v-0.1c-0.1,0-0.1-0.1-0.2-0.2
			c0-0.1-0.1-0.1-0.1-0.2c0,0-0.1-0.1-0.1-0.2c-0.1,0-0.1-0.1-0.1-0.1c-0.1-0.1-0.1-0.2-0.2-0.2c0-0.1,0-0.1-0.1-0.2
			c0-0.1,0-0.1-0.1-0.2c0,0,0-0.1-0.1-0.2c0,0,0-0.1-0.1-0.2l0,0v-0.1c-0.1-0.1-0.1-0.2-0.1-0.3c-0.1,0-0.1-0.1-0.1-0.1
			c-0.1-0.1-0.1-0.2-0.1-0.2c0-0.1-0.1-0.2-0.1-0.2c0-0.1,0-0.2-0.1-0.3l0,0v-0.1c-0.1-0.1-0.1-0.2-0.1-0.3l0,0l-0.1-0.1
			c0-0.2,0-0.3-0.1-0.4l0,0v-0.2c0-0.1-0.1-0.2-0.1-0.3l0,0v-0.1c0-0.1-0.1-0.2-0.1-0.3l0,0l0-0.2c0,0,0-0.1-0.1-0.1l0,0
			L572.2,222.3z M493.5,179.2v44.9c0,4.1,1.5,7.9,4.3,10.9l0,0l0.4-0.5l3.3-3.3l-0.1-0.1c0,0,0,0,0,0c0-0.1-0.1-0.1-0.1-0.1
			c0-0.1-0.1-0.1-0.1-0.1c0-0.1,0-0.1-0.1-0.2l0,0l0,0l0,0l-0.1-0.1c0,0,0,0-0.1-0.1l0,0v-0.1c-0.1,0-0.1-0.1-0.1-0.1
			c-0.1,0-0.1-0.1-0.1-0.1c0-0.1-0.1-0.1-0.1-0.1c0-0.1-0.1-0.1-0.1-0.1c0-0.1,0-0.1-0.1-0.2l0,0v-0.1c-0.1,0-0.1-0.1-0.1-0.1
			c-0.1,0-0.1-0.1-0.1-0.1c0-0.1-0.1-0.1-0.1-0.1c0-0.1,0-0.1-0.1-0.2l0,0v-0.1c-0.1,0-0.1-0.1-0.1-0.1c0-0.1,0-0.1-0.1-0.2l0,0V229
			c-0.1,0-0.1-0.1-0.1-0.1s0-0.1-0.1-0.1c0-0.1,0-0.2-0.1-0.3c0-0.1-0.1-0.1-0.1-0.2l0,0v-0.1c-0.1-0.1-0.1-0.1-0.1-0.2l0,0l0,0l0,0
			l-0.1-0.1V228c0-0.1,0-0.1-0.1-0.2l0,0v-0.1c0,0,0-0.1-0.1-0.1l0,0v-0.2c0,0,0-0.1-0.1-0.1l0,0v-0.3c-0.1,0-0.1-0.1-0.1-0.1l0,0
			v-0.1c0-0.1,0-0.1-0.1-0.2l0,0v-0.4c-0.1,0-0.1-0.1-0.1-0.1l0,0V226c0-0.1,0-0.1-0.1-0.2l0,0v-0.4c0-0.1-0.1-0.1-0.1-0.2l0,0
			v-40.8L493.5,179.2z M525.2,179.2l-5.3,5.3v39.6c0,0.1,0,0.2-0.1,0.3l0,0v1.1c-0.1,0.1-0.1,0.1-0.1,0.2l0,0v0.4l-0.1,0.1v0.3
			c0,0,0,0.1-0.1,0.1l0,0l0,0.3c0,0,0,0.1-0.1,0.1l0,0v0.2c0,0.1-0.1,0.1-0.1,0.2l0,0v0.1c0,0,0,0.1-0.1,0.1l0,0v0.3
			c-0.1,0-0.1,0.1-0.1,0.2l0,0v0.1c-0.1,0-0.1,0.1-0.1,0.1c0,0.1,0,0.1-0.1,0.1l0,0v0.2l-0.1,0.1c0,0.2-0.1,0.3-0.2,0.4
			c-0.1,0.1-0.1,0.2-0.1,0.2l0,0l-0.1,0.1l0,0.1c0,0,0,0.1-0.1,0.1l0,0v0.1c-0.1,0-0.1,0.1-0.1,0.1c0,0.1-0.1,0.1-0.1,0.1
			c0,0.1,0,0.1-0.1,0.2l0,0v0.1c-0.1,0-0.1,0.1-0.1,0.1c0,0.1-0.1,0.1-0.1,0.1c0,0.1-0.1,0.1-0.1,0.2l0,0c0,0,0,0-0.1,0.1l0,0v0.1
			c-0.1,0-0.1,0.1-0.1,0.1c-0.1,0-0.1,0.1-0.1,0.1c0,0.1-0.1,0.1-0.1,0.1c0,0.1-0.1,0.1-0.1,0.1c0,0.1-0.1,0.1-0.1,0.1
			c0,0.1-0.1,0.1-0.1,0.2l0,0l-0.3,0.3l3.7,3.8c2.8-3,4.4-6.8,4.4-10.9l0,0V179.2z M587.4,228.3c-0.5,0.4-1.1,0.5-1.8,0.5
			c-0.6,0-1.2-0.2-1.8-0.4l0,0l-3.5,3.5c0,0,0.1,0,0.1,0l0,0l0.1,0c0,0,0.1,0.1,0.1,0.1l0.3,0.3h0.1c0.1,0.1,0.2,0.1,0.3,0.2l0,0
			l0.1,0.1c0,0,0.1,0,0.1,0l0,0l0.1,0c0.1,0.1,0.1,0.1,0.2,0.1c0.1,0.1,0.1,0.1,0.2,0.1c0.1,0.1,0.1,0.1,0.2,0.1
			c0,0.1,0.1,0.1,0.2,0.1l0,0l0.1,0.1c0.1,0,0.2,0.1,0.2,0.1c0.1,0,0.2,0,0.2,0.1l0,0h0.2c0.1,0.1,0.1,0.1,0.2,0.1s0.2,0,0.2,0.1
			l0,0h0.2c0.1,0,0.2,0.1,0.2,0.1l0,0l0.2,0c0.1,0,0.1,0,0.1,0.1l0,0h0.4l0,0l0.1,0.1h0.8c0.1,0,0.3,0.1,0.4,0.1
			c0.2,0,0.3-0.1,0.4-0.1l0,0h0.7c0,0,0.1,0,0.1,0l0.1,0h0.4c0.1-0.1,0.2-0.1,0.3-0.1h0.2c0.1,0,0.1-0.1,0.2-0.1l0,0h0.2
			c0.1-0.1,0.1-0.1,0.2-0.1l0.1,0c0,0,0.1,0,0.1-0.1l0,0h0.2c0.1-0.1,0.2-0.1,0.2-0.1c0.1,0,0.2-0.1,0.2-0.1c0.1,0,0.2,0,0.2-0.1
			c0.1,0,0.2,0,0.2-0.1l0,0h0.2c0.1-0.1,0.2-0.1,0.2-0.2l0,0h0.2c0.1-0.1,0.2-0.2,0.3-0.2l0,0l0.1-0.1c0.1,0,0.2-0.1,0.3-0.2l0,0
			h0.1c0.1-0.1,0.2-0.2,0.3-0.2c0-0.1,0.1-0.1,0.1-0.1l0,0l0.2-0.2L587.4,228.3z M512.2,227.6c-0.8,0.7-1.9,1.1-2.9,1.1
			c-1.1,0-2.1-0.4-2.9-1.1l0,0l-1.2,1.3l-2.4,2.3h0.1v0.1l0.1,0c0,0,0.1,0.1,0.1,0.1c0,0,0,0.1,0.1,0.1l0,0l0.1,0.1c0,0,0,0,0,0l0,0
			l0.1,0.1h0.1c0,0.1,0,0.1,0.1,0.1c0,0,0,0.1,0.1,0.1c0,0,0,0.1,0.1,0.1l0,0l0.1,0.1h0.1c0,0.1,0.1,0.1,0.1,0.1l0.1,0.1
			c0,0,0.1,0,0.1,0.1l0,0h0.1c0.1,0,0.1,0.1,0.1,0.1c0.1,0,0.1,0,0.1,0.1l0,0h0.2c0,0,0,0.1,0.1,0.1l0,0h0.1c0,0.1,0.1,0.1,0.1,0.1
			s0.1,0,0.1,0.1l0,0h0.1c0.1,0,0.1,0.1,0.2,0.1l0,0h0.1c0,0.1,0.1,0.1,0.1,0.1l0,0h0.1c0.1,0.1,0.1,0.1,0.2,0.1l0,0l0.1,0.1h0.2
			c0,0.1,0,0.1,0.1,0.1l0,0h0.1l0.1,0.1l0,0l0.2,0l0.1,0.1h0.2c0.1,0,0.1,0.1,0.1,0.1l0,0h0.3l0,0l0.1,0.1l0.3,0c0,0,0.1,0,0.1,0.1
			l0,0h0.4l0,0l0.1,0.1h0.7c0.1,0,0.1,0.1,0.2,0.1l0,0h1.1l0.1-0.1h0.7l0.1-0.1h0.4c0.1-0.1,0.1-0.1,0.2-0.1h0.2
			c0.1,0,0.1-0.1,0.1-0.1l0,0h0.3l0.1-0.1h0.3c0-0.1,0-0.1,0.1-0.1h0.1c0.1,0,0.1-0.1,0.1-0.1l0,0h0.2l0.1-0.1l0.1,0c0,0,0,0,0-0.1
			c0.1,0,0.2,0,0.2-0.1l0,0l0.1,0c0,0,0.1,0,0.1-0.1l0,0h0.1l0.1-0.1h0.1l0.1-0.1c0.1,0,0.1,0,0.1-0.1l0,0h0.2c0,0,0-0.1,0.1-0.1
			c0,0,0.1,0,0.1-0.1l0,0h0.1l0.1-0.1c0.1,0,0.1,0,0.1-0.1l0,0h0.1l0.1-0.1c0.1,0,0.1,0,0.2-0.1l0,0h0.1c0-0.1,0-0.1,0.1-0.1
			c0-0.1,0-0.1,0.1-0.1c0,0,0-0.1,0.1-0.1l0,0c0,0,0,0,0,0l0.1-0.1h0.1c0-0.1,0-0.1,0.1-0.1c0-0.1,0-0.1,0.1-0.1c0,0,0-0.1,0.1-0.1
			l0,0l0.2-0.2L512.2,227.6z M586.2,209.4l-3.7,3.8c1.9,2.3,4.2,5,5.5,7.5c0.3,0.4,1.4,2.1,1.4,4.3c0,1.1-0.4,2.1-1.2,2.8l0,0
			l3.6,3.5c0-0.1,0.1-0.1,0.1-0.1c0-0.1,0.1-0.1,0.1-0.1c0-0.1,0.1-0.1,0.1-0.1c0-0.1,0.1-0.1,0.1-0.1c0-0.1,0-0.1,0.1-0.1
			c0-0.1,0-0.1,0.1-0.1c0-0.1,0-0.1,0.1-0.1c0-0.1,0-0.1,0.1-0.1l0,0v-0.1l0.1-0.1c0,0,0,0,0,0c0-0.1,0.1-0.1,0.1-0.2l0,0h0.1
			c0-0.1,0-0.1,0.1-0.2l0,0v-0.1c0.1,0,0.1,0,0.1-0.1l0,0l0.1-0.1c0,0,0-0.1,0.1-0.1l0,0v-0.1l0.1-0.1c0-0.1,0-0.1,0.1-0.1
			c0-0.1,0-0.1,0.1-0.2l0,0v-0.1c0,0,0.1-0.1,0.1-0.2l0,0h0.1v-0.2l0,0l0.1-0.1c0-0.1,0-0.1,0.1-0.2l0,0l0-0.1c0,0,0-0.1,0.1-0.1
			l0,0v-0.1c0-0.1,0.1-0.1,0.1-0.2l0,0l0-0.1c0,0,0-0.1,0.1-0.1l0,0l0-0.1c0,0,0-0.1,0.1-0.1l0,0v-0.2c0.1,0,0.1-0.1,0.1-0.1l0,0
			v-0.3c0.1,0,0.1-0.1,0.1-0.1l0,0v-0.3c0.1,0,0.1,0,0.1-0.1l0,0l0-0.2c0,0,0-0.1,0.1-0.1l0,0v-0.5c0-0.1,0.1-0.1,0.1-0.2l0,0v-0.8
			c0-0.5,0-1.1-0.1-1.5c-0.1-0.2-0.1-0.4-0.1-0.5c-0.3-1.1-0.6-2.1-1.1-3.3c-0.3-0.4-0.5-1-0.8-1.4c0-0.1-0.1-0.2-0.1-0.3
			C590.9,214.9,588.5,212.2,586.2,209.4L586.2,209.4z M581.9,222.3l-2.2,2.3l-1.9,2.1l0,0.2c0,0.1,0,0.1,0.1,0.2l0,0v0.4
			c0.1,0,0.1,0.1,0.1,0.1c0,0.1,0,0.2,0.1,0.3l0,0v0.1c0,0.1,0.1,0.2,0.1,0.4c0.1,0.1,0.1,0.2,0.1,0.3c0.1,0.1,0.1,0.1,0.1,0.2l0,0
			l0,0.1c0,0,0,0.1,0,0.1c0,0,0,0.1,0.1,0.1c0,0.1,0,0.2,0.1,0.2l0,0v0.2c0.1,0,0.1,0.1,0.1,0.2c0,0,0,0,0,0l0.1,0.1
			c0,0.1,0.1,0.1,0.1,0.2c0,0.1,0.1,0.1,0.1,0.1c0,0.1,0.1,0.2,0.1,0.2c0,0.1,0.1,0.1,0.1,0.2l0,0l0,0.1c0,0,0,0.1,0,0.1
			c0.1,0,0.1,0,0.1,0.1c0.1,0.1,0.1,0.2,0.2,0.3l0,0h0.1c0,0.1,0.1,0.2,0.1,0.2l0,0l0.1,0.1l0,0c0.1,0.1,0.1,0.1,0.1,0.2l0,0
			l3.4-3.4c-0.8-0.7-1.3-1.7-1.3-2.8l0,0V222.3z M388.2,227.4h-14.1l4.1,3.5h6.2L388.2,227.4z M504.9,179.2l-5.3,5.3l0,40.8
			c0,0,0,0.1,0.1,0.1l0,0v0.5c0.1,0,0.1,0.1,0.1,0.1l0,0l0,0.3c0,0,0,0.1,0.1,0.1l0,0l0,0.3l0.1,0.1l0,0.2c0,0,0,0.1,0.1,0.1l0,0
			v0.2c0.1,0.1,0.1,0.1,0.1,0.2c0,0.1,0.1,0.2,0.1,0.2l0,0v0.1c0,0.1,0.1,0.1,0.1,0.2s0.1,0.2,0.1,0.3c0.1,0.1,0.1,0.1,0.1,0.2l0,0
			v0.1c0.1,0,0.1,0.1,0.1,0.1c0,0.1,0.1,0.1,0.1,0.1l0,0v0.2c0.1,0,0.1,0,0.1,0.1l0,0c0,0,0,0,0.1,0.1l0,0v0.1
			c0.1,0,0.1,0.1,0.1,0.1c0,0.1,0,0.1,0.1,0.1l0,0v0.1l0.1,0.1l0,0l0,0c0,0.1,0.1,0.1,0.1,0.2l0,0v0.1c0.1,0,0.1,0,0.1,0.1
			c0.1,0,0.1,0,0.1,0.1c0,0,0,0,0,0l0.1,0.1v0.1c0.1,0,0.1,0.1,0.1,0.1c0.1,0,0.1,0.1,0.1,0.1l0,0l0.2,0.2l0,0l0,0
			c0,0,0,0.1,0.1,0.1l0,0v0.1c0.1,0,0.1,0.1,0.1,0.1c0.1,0,0.1,0.1,0.1,0.1l0,0l3.7-3.6c-0.4-0.6-0.8-1.3-0.8-2.1
			c-0.1-0.3-0.1-0.5-0.1-0.8l0,0V179.2z M513.7,179.2v44.9c0,0.4-0.1,0.8-0.2,1.1c-0.1,0.6-0.4,1.2-0.7,1.7l0,0v0.1l3.6,3.6
			c0,0,0,0,0,0l0,0l0.2-0.2c0,0,0-0.1,0.1-0.1c0,0,0-0.1,0.1-0.1l0,0v-0.1c0.1,0,0.1-0.1,0.1-0.1l0,0l0.2-0.2c0-0.1,0-0.1,0.1-0.1
			l0,0v-0.1l0.1-0.1c0-0.1,0.1-0.1,0.1-0.1c0-0.1,0-0.1,0.1-0.1l0,0v-0.2c0.1,0,0.1,0,0.1-0.1l0,0l0.1-0.1V229
			c0.1,0,0.1-0.1,0.1-0.1s0-0.1,0.1-0.1l0,0v-0.1c0-0.1,0.1-0.1,0.1-0.1c0-0.1,0-0.1,0.1-0.2l0,0v-0.1l0.1-0.1v-0.1
			c0-0.1,0.1-0.1,0.1-0.2c0.1-0.1,0.1-0.2,0.1-0.3c0.1-0.1,0.1-0.1,0.1-0.2c0,0,0-0.1,0.1-0.1l0,0v-0.3c0.1,0,0.1-0.1,0.1-0.1l0,0
			v-0.1c0-0.1,0.1-0.1,0.1-0.1l0,0v-0.3c0.1,0,0.1-0.1,0.1-0.1l0,0v-0.3c0.1,0,0.1-0.1,0.1-0.1V226l0.1-0.1v-0.4l0.1-0.1l0-1
			c0,0,0-0.1,0.1-0.1l0,0v-39.9L513.7,179.2z M383.2,223h-4.1l-4.9,3.5H388L383.2,223z M581.3,221.7h-8.5l4.3,4.2L581.3,221.7z
			 M380.8,188.9l-7.2,37.1l5.1-3.7l2.1-17.8V188.9z M381.6,189v15.5l2.1,17.8l4.9,3.6L381.6,189z M381.2,208.2l-1.7,13.9h3.4
			L381.2,208.2z M429.5,210.6L429.5,210.6C429.5,210.7,429.4,210.7,429.5,210.6c-0.2,0.2-0.3,0.3-0.4,0.3c0,0.1-0.1,0.1-0.1,0.1
			c-0.1,0.1-0.2,0.1-0.3,0.2l0,0l-0.1,0.1c-0.1,0-0.2,0.1-0.2,0.1c-0.1,0.1-0.2,0.1-0.2,0.1c-0.1,0.1-0.2,0.1-0.2,0.2
			c-0.1,0-0.2,0-0.2,0.1c-0.1,0-0.2,0.1-0.3,0.1l0,0l-0.1,0.1c-0.1,0-0.2,0.1-0.3,0.1c0,0-0.1,0-0.2,0.1c0,0-0.1,0-0.2,0.1l0,0h-0.2
			c-0.1,0.1-0.2,0.1-0.2,0.1c-0.1,0-0.2,0.1-0.2,0.1c-0.1,0-0.2,0-0.3,0.1l0,0h-0.2c-0.1,0-0.2,0.1-0.2,0.1l0,0h-0.2
			c-0.1,0.1-0.2,0.1-0.3,0.1l0,0h-0.2c-0.1,0-0.2,0.1-0.3,0.1l0,0h-0.4c-0.1,0-0.2,0-0.2,0.1l0,0h-8.7l2.4,2.2l2.8,2.5h2.6
			c3.4,0,6.7-1.1,9.4-3.3l0,0L429.5,210.6z M565.7,179.2l-6.9,4.5l-9.5,32.9l5.3,0.4L565.7,179.2z M532.1,179.2l10.8,37.8l5.2-0.4
			l-9.2-32.9L532.1,179.2z M553.9,179.1l-4.7,22.9v11.8l8.7-30.2L553.9,179.1z M543.6,179.1l-3.8,4.4l8.5,30.2v-11.8L543.6,179.1z
			 M434.2,183.1l-3.4,3.3l-0.4,0.4h0.1v0.1l0.1,0c0,0,0,0.1,0,0.1l0,0l0.1,0.1l0.1,0.1l0.1,0.1c0,0,0,0.1,0.1,0.1l0,0v0.1l0.1,0.1
			c0,0,0,0,0,0l0.1,0.1l0,0c0,0.1,0.1,0.1,0.1,0.1c0,0.1,0,0.1,0.1,0.1l0,0v0.1l0.1,0.1c0,0,0,0,0,0c0,0.1,0.1,0.1,0.1,0.2l0,0
			c0,0,0,0,0.1,0.1l0,0v0.1c0.1,0,0.1,0,0.1,0.1c0,0,0,0.1,0.1,0.1l0,0v0.1c0.1,0,0.1,0.1,0.1,0.1c0,0.1,0,0.1,0.1,0.1l0,0v0.2h0.1
			c0,0.1,0,0.1,0.1,0.2l0,0l0,0.1c0,0,0,0.1,0.1,0.2c0.1,0.2,0.1,0.3,0.2,0.4l0,0v0.1c0.1,0,0.1,0.1,0.1,0.1l0,0v0.1l0,0.1
			c0,0,0.1,0.1,0.1,0.1l0,0l0,0.1c0,0,0,0.1,0.1,0.1l0,0v0.3c0,0,0.1,0,0.1,0.1l0,0v0.2c0,0.1,0.1,0.1,0.1,0.2l0,0v0.3l0.1,0.1
			c0,0,0,0.1,0,0.1l0,0l0,0.3c0,0,0,0.1,0.1,0.1l0,0v12.7c0,0-0.1,0-0.1,0.1l0,0v0.4c-0.1,0.1-0.1,0.1-0.1,0.2l0,0v0.2
			c0,0.1-0.1,0.1-0.1,0.1l0,0v0.3c0,0.1-0.1,0.1-0.1,0.2l0,0v0.1c0,0,0,0.1-0.1,0.1l0,0v0.3c-0.1,0-0.1,0-0.1,0.1l0,0v0.1l-0.1,0.1
			l0,0.1c0,0.1,0,0.1-0.1,0.1l0,0v0.1c0,0.2-0.1,0.3-0.2,0.4c-0.1,0.1-0.1,0.2-0.1,0.2c0,0.1-0.1,0.1-0.1,0.1c0,0.1,0,0.1-0.1,0.2
			l0,0v0.1l-0.1,0.1v0.1c-0.1,0-0.1,0.1-0.1,0.1c0,0.1-0.1,0.1-0.1,0.1c0,0.1,0,0.1-0.1,0.2l0,0v0.1c-0.1,0-0.1,0.1-0.1,0.1l0,0
			l-0.1,0.1c0,0,0,0.1-0.1,0.1l0,0v0.1c-0.1,0.1-0.1,0.1-0.1,0.1l0,0l-0.1,0.1l0,0.1c0,0-0.1,0-0.1,0c0,0.1-0.1,0.1-0.1,0.1
			c0,0.1-0.1,0.1-0.1,0.2l0,0l0,0l-0.2,0.2v0.1c-0.1,0-0.1,0-0.2,0.1l0,0v0.1c-0.1,0-0.1,0-0.1,0.1c-0.1,0-0.1,0-0.1,0.1l0,0
			l3.4,3.4c2.9-2.8,4.6-6.7,4.6-10.7l0,0v-9.6C438.3,189.4,436.8,185.8,434.2,183.1L434.2,183.1z M474.9,209h-18.2l5.1,4.4h7.9
			L474.9,209z M575.6,183c-2.5,2.7-3.8,6.3-3.8,9.7c0,7.8,5.3,14.2,10.1,19.8l0,0l3.8-3.7c-4.3-5.1-8.6-10.4-8.6-16.1l0,0l0-0.9
			c0-0.1,0-0.2,0.1-0.3l0,0v-0.4c0.1-0.1,0.1-0.3,0.1-0.4l0,0v-0.1c0.1-0.1,0.1-0.2,0.1-0.3s0.1-0.1,0.1-0.1c0-0.1,0-0.3,0.1-0.4
			c0-0.2,0.1-0.3,0.1-0.4l0,0v-0.1c0.1-0.1,0.2-0.2,0.2-0.4c0.1-0.1,0.1-0.2,0.2-0.4c0.1-0.1,0.1-0.3,0.2-0.4
			c0.1-0.2,0.2-0.3,0.2-0.4c0.1,0,0.1,0,0.1-0.1c0-0.1,0.1-0.2,0.2-0.3l0,0v-0.1l0.3-0.3v-0.1l0.3-0.3c0.1-0.1,0.2-0.3,0.3-0.4l0,0
			L575.6,183z M425.5,206.6c-0.1,0-0.1,0.1-0.2,0.1l0,0l-0.1,0.1h-0.1l-0.1,0.1h-0.2v0.1l-0.2,0l-0.1,0.1l-0.2,0
			c-0.1,0-0.1,0.1-0.1,0.1l0,0h-0.4v0.1H421l-5.2,4.7h8.6c0-0.1,0.1-0.1,0.1-0.1l0,0l0.5,0c0,0,0.1,0,0.1-0.1l0,0h0.4
			c0.1-0.1,0.1-0.1,0.2-0.1h0.2c0.1-0.1,0.2-0.1,0.2-0.1c0.1,0,0.2,0,0.2-0.1l0,0h0.2c0.1,0,0.2-0.1,0.2-0.1c0.1,0,0.1,0,0.2-0.1
			l0,0h0.2c0.1-0.1,0.1-0.1,0.2-0.1s0.1-0.1,0.2-0.1c0.1,0,0.1-0.1,0.2-0.1c0.1,0,0.1-0.1,0.2-0.1c0.1,0,0.1-0.1,0.1-0.1
			c0.1,0,0.3-0.1,0.4-0.2c0.1-0.1,0.2-0.1,0.4-0.2c0,0,0-0.1,0.1-0.1l0,0l0.2-0.2c0,0,0.1,0,0.1-0.1c0.1,0,0.1,0,0.2-0.1l0,0
			L425.5,206.6z M415.1,185.3v26l5.3-4.8v-15.9L415.1,185.3z M429.8,187.4l-0.2,0.3l-3.5,3.4l0,0l0.1,0.1c0,0,0,0,0,0l0,0l0.2,0.2
			h0.1c0,0.1,0,0.1,0.1,0.2l0.1,0.1c0,0,0,0.1,0.1,0.1c0,0,0,0.1,0.1,0.1c0,0,0,0.1,0.1,0.1l0,0v0.1l0.1,0.1c0,0.1,0,0.1,0,0.1
			c0.1,0,0.1,0.1,0.1,0.1c0,0.1,0.1,0.1,0.1,0.2l0,0v0.1c0.1,0,0.1,0.1,0.2,0.2l0,0v0.1c0,0.1,0.1,0.1,0.1,0.2l0,0v0.1
			c0,0.1,0.1,0.1,0.1,0.2l0,0v0.1c0,0.1,0.1,0.1,0.1,0.2l0,0v0.3c0.1,0,0.1,0,0.1,0.1l0,0v9.6c0,0,0,0.1-0.1,0.1l0,0v0.3
			c0,0.1,0,0.1-0.1,0.2l0,0v0.1c0,0,0,0.1-0.1,0.2l0,0v0.1c0,0,0,0.1-0.1,0.2c0,0.1-0.1,0.2-0.1,0.3l0,0l-0.1,0.1c0,0,0,0.1-0.1,0.2
			c-0.1,0.1-0.1,0.2-0.1,0.2l0,0l0,0l-0.2,0.2c0,0.1,0,0.1-0.1,0.1c0,0.1,0,0.1-0.1,0.2l-0.1,0.1c0,0,0,0.1-0.1,0.1
			c0,0,0,0.1-0.1,0.1c0,0,0,0.1-0.1,0.1c0,0,0,0.1-0.1,0.1l0,0l3.4,3.4v-0.1l0.2-0.2c0.1,0,0.1-0.1,0.1-0.1l0,0l0.1-0.1
			c0,0,0-0.1,0.1-0.1c0,0,0-0.1,0.1-0.1l0,0v-0.1c0.1,0,0.1,0,0.1-0.1c0,0,0.1,0,0.1-0.1l0,0l0,0c0,0,0,0,0.1-0.1l0,0v-0.1
			c0.1,0,0.1,0,0.1-0.1c0,0,0.1,0,0.1-0.1l0,0l0.1-0.1v-0.1c0.1,0,0.1,0,0.1-0.1c0,0,0-0.1,0.1-0.1l0,0v-0.1l0.1-0.1
			c0,0,0-0.1,0.1-0.1l0,0v-0.1c0,0,0,0,0,0l0,0l0.1-0.1v-0.1l0.1-0.1c0-0.1,0-0.1,0.1-0.2c0-0.1,0.1-0.2,0.1-0.3
			c0.1-0.1,0.1-0.1,0.1-0.2l0,0v-0.1c0.1,0,0.1-0.1,0.1-0.1l0,0v-0.1c0-0.1,0.1-0.1,0.1-0.2l0,0l0-0.1l0,0l0.1-0.1v-0.2
			c0-0.1,0.1-0.1,0.1-0.1l0,0v-0.3l0.1-0.1v-0.3l0.1-0.1c0,0,0-0.1,0-0.1l0,0l0-0.3c0,0,0-0.1,0.1-0.1l0,0l0-12.5c0,0,0-0.1-0.1-0.1
			l0,0v-0.4c-0.1-0.2-0.1-0.3-0.1-0.4v-0.1c-0.1-0.1-0.1-0.2-0.1-0.4c-0.1-0.2-0.1-0.3-0.2-0.4c0-0.2-0.1-0.3-0.1-0.4
			c-0.1-0.2-0.1-0.3-0.2-0.4l0,0v-0.1c-0.1-0.1-0.1-0.2-0.2-0.3l0,0v-0.1c-0.1-0.1-0.1-0.2-0.2-0.3l0,0V189
			c-0.1-0.1-0.2-0.2-0.2-0.3l0,0l-0.1-0.1c0-0.1-0.1-0.2-0.2-0.3c-0.1-0.2-0.2-0.3-0.3-0.4c-0.1-0.1-0.2-0.2-0.2-0.3
			c-0.1,0-0.1,0-0.1-0.1l0,0L429.8,187.4z M580,187.3L580,187.3c-0.1,0.2-0.2,0.3-0.3,0.4c-0.1,0.1-0.2,0.2-0.2,0.3l0,0l-0.3,0.3
			v0.1l-0.1,0.1c0,0.1-0.1,0.1-0.1,0.2l0,0v0.1c-0.1,0.1-0.1,0.2-0.2,0.3c-0.1,0.1-0.1,0.2-0.2,0.3l0,0v0.1l-0.1,0.1
			c0,0.1-0.1,0.1-0.1,0.2l0,0v0.1l0,0.1c0,0.1-0.1,0.1-0.1,0.2l0,0v0.1c-0.1,0.1-0.1,0.2-0.2,0.3c0,0.2-0.1,0.3-0.1,0.4
			c0,0.2-0.1,0.3-0.1,0.4c0,0.2-0.1,0.3-0.1,0.4c0,0.2,0,0.3-0.1,0.4l0,0v1.1c0,5.5,4.2,10.6,8.3,15.5l0,0l3.7-3.8
			c-3.4-4.2-6.4-7.9-6.7-11.1c0-0.3-0.1-0.5-0.1-0.9c0-0.5,0.2-1.1,0.4-1.5l0,0L580,187.3z M469.8,203.7h-7.9l-5.1,4.4h18.2
			L469.8,203.7z M461.3,179.2l-5.3,5.3v23.1l5.3-4.5V179.2z M470.4,179.2v23.9l5.3,4.5v-23.1L470.4,179.2z M423.1,190.9h-1.8v15.4
			h1.8c0.8,0,1.6-0.2,2.2-0.6c0.8-0.6,1.3-1.5,1.5-2.4l0,0v-8.7c0-1.2-0.5-2.4-1.6-3.1c-0.4-0.3-0.7-0.4-1.1-0.5
			C423.8,190.9,423.4,190.9,423.1,190.9L423.1,190.9z M259.5,177.2l0.4,0c1.4,0.1,2.8,0.6,3.9,1.5l0,0l0.7,0.5l0.3,0.3
			c0.8,0.9,1.4,2.1,1.7,3.3c0.1,0.5,0.2,1,0.2,1.5l0,0v0.3l0,0.1c0,0.2-0.1,0.6-0.1,0.6c-0.2,1.6-1,3.1-2.2,4.2l0,0l-0.4,0.4
			l-0.3,0.2h-0.1l-0.3,0.3c-0.9,0.6-2,1-3.1,1.1c0.8,1.4,2,2.6,3.5,3.1l0,0l0.4,0.2v3h-0.5l-0.5,0c-3.2-0.1-6.1-1.5-8.3-3.8
			c-0.9-0.9-1.6-1.9-2.2-3l0,0l-0.2-0.4l-0.2-0.4l-0.2-0.6c-0.6-1.5-0.8-3-0.8-4.6l0,0v-0.4l0-0.4c0.2-1.6,0.9-3.1,1.9-4.4l0,0
			l0.4-0.3l0.3-0.4h0.1l0.3-0.3c1.3-1.1,3-1.6,4.7-1.6l0,0H259.5z M255.5,189.6l-2,0.9l0.2,0.4c0.5,0.8,1.1,1.6,1.8,2.3
			c1.9,1.9,4.3,3.2,6.9,3.4l0,0l-0.7-0.6h-0.2l-0.1,0c0,0-0.1-0.1-0.1-0.1c-0.1,0-0.2,0-0.2-0.1c-0.1,0-0.2,0-0.2-0.1
			c-0.1,0-0.2,0-0.3-0.1l0,0h-0.2l0-0.1c0,0-0.1-0.1-0.2-0.1l0,0h-0.2l-0.2-0.2l-0.1,0c0,0-0.1,0-0.1-0.1c-0.1,0-0.1-0.1-0.2-0.1
			c-0.1,0-0.1-0.1-0.2-0.1c0-0.1-0.1-0.1-0.2-0.2c0,0-0.1,0-0.2-0.1c0,0-0.1-0.1-0.2-0.1c0-0.1-0.1-0.1-0.1-0.2
			c-0.1,0-0.1,0-0.2-0.1l0,0l-0.2-0.2l-0.1,0c0,0-0.1-0.1-0.1-0.1c0-0.1-0.1-0.1-0.1-0.2c-0.1,0-0.2-0.1-0.2-0.2
			c-0.1,0-0.1-0.1-0.2-0.1c0-0.1-0.1-0.2-0.2-0.2c0-0.1,0-0.1-0.1-0.2c-0.1,0-0.1-0.1-0.2-0.2l0,0l-0.1-0.1l-0.1-0.1
			c0-0.1-0.1-0.1-0.1-0.2l0,0l-0.1-0.1l-0.1-0.1c0-0.1-0.1-0.1-0.1-0.2c0,0,0-0.1-0.1-0.1c-0.1-0.2-0.2-0.3-0.2-0.4
			c-0.1,0-0.1-0.1-0.2-0.2c0-0.1,0-0.1-0.1-0.1l0,0v-0.1c0,0,0-0.1-0.1-0.1l0,0v-0.1l0,0c0,0-0.1-0.1-0.1-0.2c0,0,0-0.1-0.1-0.1l0,0
			v-0.1c0,0,0-0.1-0.1-0.1l0,0v-0.2H256v-0.2l-0.1-0.1c0,0,0,0,0-0.1l0,0l0-0.1c0,0,0,0-0.1,0l0,0l0-0.2c0-0.1,0-0.1-0.1-0.2l0,0
			v-0.1l-0.1-0.1L255.5,189.6C255.6,189.6,255.6,189.6,255.5,189.6L255.5,189.6z M594.4,192l-4.2,4.2h8.5l-1.1-1.1L594.4,192z
			 M596.7,183l-0.9,0.9l-2.7,2.7c0,0.1,0,0.1,0.1,0.2l0,0v0.1c0.1,0.1,0.2,0.2,0.2,0.3c0.1,0.1,0.2,0.2,0.2,0.3c0,0,0.1,0,0.1,0.1
			c0,0.1,0.1,0.1,0.1,0.2l0,0l0.1,0.1c0,0.1,0,0.2,0.1,0.2l0,0v0.2c0.1,0,0.1,0.1,0.1,0.2c0.1,0,0.1,0,0.1,0.1
			c0,0.1,0.1,0.1,0.1,0.2l0,0v0.1c0.1,0.1,0.1,0.2,0.1,0.2c0,0.1,0.1,0.1,0.1,0.2l0,0v0.2c0.1,0,0.1,0.1,0.1,0.1
			c0,0.1,0,0.2,0.1,0.3l0,0v0.1c0,0.1,0.1,0.2,0.1,0.4c0,0.1,0.1,0.2,0.1,0.3l0,0l0,0.2c0,0,0,0.1,0.1,0.2l0,0l0,0.4
			c0,0,0,0.1,0.1,0.2l0,0v0.1l2.1,2.1l2.4,2.3v-5.7C599.3,188.2,598.5,185.3,596.7,183L596.7,183z M592.4,187.2l-2.5,2.6l-0.8,0.8
			c0.4,0.5,0.5,1.1,0.5,1.9l0,0v3.2l4.3-4.4c-0.1-0.1-0.1-0.1-0.1-0.2l0,0v-0.3c0,0,0-0.1,0-0.1l0,0l0-0.1v-0.2c0,0,0-0.1-0.1-0.2
			l0,0v-0.1c0-0.1,0-0.2-0.1-0.3l0,0v-0.1c0-0.1,0-0.2-0.1-0.2l0,0v-0.2c0,0,0-0.1-0.1-0.2l0,0v-0.1c0,0-0.1-0.1-0.1-0.2l0,0v-0.1
			c-0.1-0.1-0.1-0.1-0.1-0.2c0,0,0-0.1-0.1-0.1c0-0.1,0-0.1-0.1-0.2l0,0v-0.1c0-0.1-0.1-0.2-0.1-0.3c-0.1,0-0.1,0-0.1-0.1
			c0,0-0.1-0.1-0.1-0.2l0,0l-0.1-0.1l0,0l0,0c0,0,0-0.1-0.1-0.1l0,0v-0.1c-0.1-0.1-0.1-0.2-0.1-0.2
			C592.5,187.4,592.5,187.3,592.4,187.2L592.4,187.2L592.4,187.2L592.4,187.2z M256.6,189.8c0,0.1,0.1,0.1,0.1,0.2l0,0v0.2h0.1v0.2
			l0.1,0c0,0,0,0,0,0.1l0,0l0,0.1l0.1,0.1l0,0.1c0,0,0,0.1,0.1,0.1l0,0l0,0v0.1l0.1,0.1l0,0.1c0,0.1,0.1,0.1,0.1,0.1l0,0v0.1l0.1,0
			c0,0,0,0,0,0.1l0,0l0,0.1l0.1,0c0,0,0,0.1,0,0.2l0,0h0.1c0,0,0,0.1,0.1,0.1l0,0v0.1l0,0.1c0,0,0.1,0.1,0.1,0.1l0,0l0.2,0.2l0,0.1
			c0,0,0.1,0.1,0.1,0.1c0.1,0.1,0.1,0.2,0.2,0.2l0,0v0.1l0.1,0c0,0,0,0.1,0,0.1c0.1,0,0.1,0.1,0.1,0.1s0.1,0.1,0.1,0.2l0,0h0.1l0,0
			c0,0,0.1,0.1,0.1,0.2l0,0h0.1l0,0.1c0,0,0.1,0.1,0.1,0.1l0,0h0.1l0,0.1c0,0,0.1,0.1,0.1,0.1l0,0h0.1l0,0.1c0,0,0.1,0.1,0.1,0.1
			l0,0h0.1l0.2,0.2l0.1,0.1c0.1,0,0.1,0.1,0.1,0.1l0,0h0.1l0.2,0.2l0.1,0c0.1,0,0.1,0.1,0.1,0.1c0.1,0,0.1,0.1,0.1,0.1
			c0.1,0,0.1,0.1,0.2,0.1l0,0h0.1l0,0.1c0,0,0.1,0.1,0.2,0.1l0,0h0.1l0,0c0,0,0.1,0.1,0.2,0.1l0,0l0.1,0.1c0,0,0.1,0,0.2,0.1l0,0
			h0.1l0,0c0,0,0.1,0.1,0.2,0.1l0,0h0.1l0.1,0.1c0,0,0.1,0,0.1,0l0,0l0.1,0l0.1,0.1c0.1,0,0.1,0,0.2,0l0,0v0.1l0.7-0.4l-0.3-0.2
			c-1.3-0.7-2.4-1.9-3-3.3l0,0l-0.1-0.2L256.6,189.8z M424.4,184.7h-8.7l5.3,5.3h2.6c0.1,0,0.2,0,0.3,0.1l0,0h0.4
			c0.1,0.1,0.2,0.1,0.2,0.1l0,0h0.1c0.1,0.1,0.2,0.1,0.3,0.1l0,0v0.1c0.1,0,0.2,0,0.3,0.1c0.1,0,0.2,0.1,0.3,0.1l0,0l3.8-3.8
			c-0.1,0-0.2-0.1-0.2-0.2l0,0h-0.1l-0.1-0.1c-0.1-0.1-0.2-0.1-0.3-0.2c0,0,0,0,0,0l0,0l0,0l-0.1-0.1c-0.1,0-0.1-0.1-0.2-0.2l0,0
			h-0.2c-0.1-0.1-0.1-0.1-0.2-0.2c-0.1,0-0.1,0-0.2-0.1l0,0l-0.1,0c0,0-0.1,0-0.1,0c-0.1,0-0.1-0.1-0.2-0.1l0,0l-0.1,0
			c0,0-0.1,0-0.1,0c-0.1,0-0.1-0.1-0.2-0.1c0,0-0.1,0-0.2-0.1l0,0h-0.2c-0.1-0.1-0.1-0.1-0.2-0.1c-0.1-0.1-0.1-0.1-0.2-0.1
			c-0.1,0-0.2-0.1-0.2-0.1l0,0H426c-0.1-0.1-0.2-0.1-0.3-0.1l0,0h-0.1c-0.1-0.1-0.2-0.1-0.3-0.1l0,0h-0.2c-0.1,0-0.2-0.1-0.2-0.1
			l0,0h-0.4l-0.1,0C424.5,184.7,424.4,184.7,424.4,184.7L424.4,184.7z M258.5,184.9h-0.3l1.6,5.6l0.4,0c1-0.1,2-0.5,2.8-1.1l0,0
			L258.5,184.9z M587.2,184.2l-1.6,0c0,0-0.1,0-0.1,0.1l0,0h-0.4l-0.1,0c0,0-0.1,0-0.1,0.1l0,0h-0.3c0,0-0.1,0-0.1,0.1l0,0h-0.3
			l-0.1,0c0,0-0.1,0.1-0.1,0.1l0,0H584c0,0.1-0.1,0.1-0.1,0.1l0,0h-0.1c0,0-0.1,0-0.1,0.1l0,0h-0.2l-0.1,0.1c0,0-0.1,0-0.1,0
			c-0.2,0.1-0.3,0.2-0.4,0.2l0,0v0.1h-0.2c0,0,0,0.1-0.1,0.1l0,0h-0.1c0,0.1-0.1,0.1-0.1,0.1s-0.1,0-0.1,0.1l0,0h-0.1l-0.1,0.1h-0.1
			c0,0.1-0.1,0.1-0.1,0.1s-0.1,0-0.1,0.1l0,0h-0.1c0,0.1-0.1,0.1-0.1,0.1s0,0,0,0l-0.1,0.1h-0.1c0,0.1-0.1,0.1-0.1,0.1l0,0l-0.1,0.1
			c0,0-0.1,0-0.1,0.1l0,0h-0.1c0,0.1-0.1,0.1-0.1,0.1l0,0l-0.1,0.1c0,0,0,0.1-0.1,0.1l0,0l-0.1,0.1h-0.1v0.1l-0.1,0.1c0,0,0,0,0,0
			l0,0l-0.1,0c0,0,0,0.1,0,0.1l0,0l3.4,3.5c0.6-0.6,1.5-1.1,2.4-1.1c0.7,0,1.4,0.3,2,0.8l0,0l3.4-3.3v-0.1c-0.1-0.1-0.2-0.1-0.3-0.2
			l0,0v-0.1c-0.1-0.1-0.2-0.2-0.3-0.2l0,0V186c-0.1-0.1-0.2-0.1-0.3-0.2l0,0v-0.1c-0.1,0-0.2-0.1-0.3-0.2l0,0h-0.1
			c-0.1-0.1-0.2-0.2-0.3-0.2l0,0v-0.1c-0.1,0-0.2-0.1-0.3-0.1l0,0l-0.1-0.1c-0.1,0-0.2-0.1-0.3-0.1c0,0,0-0.1-0.1-0.1
			c-0.1,0-0.2-0.1-0.3-0.1c-0.1-0.1-0.3-0.1-0.4-0.2c-0.1,0-0.3-0.1-0.4-0.1c-0.2-0.1-0.3-0.1-0.4-0.1l0,0h-0.1
			c-0.1-0.1-0.2-0.1-0.3-0.1l0,0h-0.1c-0.1-0.1-0.2-0.1-0.4-0.1C587.5,184.3,587.3,184.3,587.2,184.2L587.2,184.2z M257.5,185.1
			h-0.3v0.1h-0.1l-0.1,0.1l-0.1,0c0,0,0,0,0,0l0,0l0,0.1h-0.1v0.1l-0.1,0c0,0,0,0,0,0l0,0l0,0.1h-0.1v0.1l0,0c0,0,0,0-0.1,0.1l0,0
			v0.1l-0.1,0.1l0,0v0.1l-0.1,0.1l0,0.2h-0.1v0.3l0,0.1c0,0,0,0.1-0.1,0.1l0,0v2l2.6,1.4L257.5,185.1z M352.5,184.7h-7.3l5.3,5.3
			h7.3L352.5,184.7z M343.1,184.7h-7.3l-5.3,5.3h7.3L343.1,184.7z M290.3,184.7H283l-5.3,5.3h7.3L290.3,184.7z M299.8,184.7h-7.3
			l5.3,5.3h7.3L299.8,184.7z M253.9,180.2c-1.1,1.3-1.8,2.9-1.8,4.6l0,0v0.3l0,0.6c0.1,1.4,0.5,2.7,1,4l0,0l2.2-1v-2l0.1-0.1
			c0,0,0,0,0-0.1l0,0l0-0.3l0,0l0,0l0,0l0.1-0.1v-0.3c0,0,0.1,0,0.1,0l0,0l0-0.1v-0.2h0.1v-0.1l0-0.1c0,0,0,0,0.1,0l0,0v-0.2h0.1
			v-0.1l0.1,0c0,0,0,0,0-0.1l0,0l0-0.1h0.1l0-0.1c0,0,0,0,0,0l0,0l0.1,0v-0.1h0.1v-0.1h0.1l0-0.1c0,0,0,0,0,0l0,0l0.1,0v-0.1h0.1
			l0.1-0.1h0.1l0-0.1c0,0,0.1,0,0.1,0l0,0h0.1v-0.1h0.2l0-0.1c0,0,0,0,0.1,0l0,0l0.2,0v-0.1h0.4L253.9,180.2z M305.7,179.2l-5,5.1
			l5,5.1V179.2z M277,179.2v10.2l5.1-5.1L277,179.2z M329.7,179.2v10.2l5.1-5.1L329.7,179.2z M358.4,179.2l-5,5.1l5,5.1V179.2z
			 M263.9,179.8l-4.6,4.7l4.4,4.4l0.3-0.3c1-1,1.6-2.4,1.8-3.8l0,0v-0.5l0-0.3c0-0.3-0.1-0.7-0.2-1
			C265.4,181.8,264.8,180.7,263.9,179.8L263.9,179.8z M423.6,178.6h-14l5.3,5.3h9.6c0.2,0.1,0.3,0.1,0.4,0.1l0,0l0.2,0
			c0.1,0,0.2,0,0.3,0.1l0,0h0.1c0.1,0,0.3,0,0.4,0.1c0.2,0,0.3,0,0.4,0.1c0.1,0,0.3,0.1,0.4,0.1l0,0h0.1c0.1,0.1,0.2,0.1,0.4,0.2
			c0.1,0,0.3,0.1,0.4,0.1l0,0v0.1l0.1,0c0.1,0,0.2,0.1,0.2,0.1l0,0c0,0,0,0,0.1,0.1c0.1,0,0.2,0.1,0.3,0.1c0.1,0.1,0.1,0.1,0.1,0.1
			c0.1,0,0.2,0.1,0.3,0.2l0,0h0.1c0.1,0.1,0.2,0.2,0.4,0.2l0,0v0.1c0.1,0,0.2,0.1,0.4,0.2l0,0l0.3,0.3h0.1l0.3,0.3l3.8-3.7
			C430.8,180,427.3,178.6,423.6,178.6L423.6,178.6z M586.5,178h-0.7c-3.6,0.2-7,1.7-9.6,4.2l0,0l1.7,1.7l2.1,2.1c0,0,0-0.1,0.1-0.1
			c0,0,0-0.1,0.1-0.1c0,0,0-0.1,0.1-0.1c0,0,0-0.1,0.1-0.1l0,0c0,0,0,0,0.1-0.1l0,0c0,0,0,0,0.1-0.1l0,0h0.1c0-0.1,0-0.1,0.1-0.1
			c0-0.1,0-0.1,0.1-0.1l0,0l0.1-0.1l0,0l0,0l0,0l0.1-0.1c0,0,0.1,0,0.1-0.1l0,0h0.1c0-0.1,0.1-0.1,0.1-0.1c0.1,0,0.1-0.1,0.1-0.1
			c0.1,0,0.1,0,0.1-0.1l0,0h0.1c0.1-0.1,0.1-0.1,0.2-0.1c0,0,0-0.1,0.1-0.1c0,0,0.1,0,0.1-0.1l0,0h0.1l0.1-0.1h0.1
			c0.1-0.1,0.1-0.1,0.2-0.1l0,0c0,0,0,0,0.1-0.1l0,0h0.1c0-0.1,0.1-0.1,0.1-0.1c0.1,0,0.2-0.1,0.2-0.1l0,0h0.1l0.1,0
			c0,0,0.1-0.1,0.1-0.1l0,0h0.1c0-0.1,0.1-0.1,0.1-0.1h0.1l0.1-0.1c0,0,0.1,0,0.1,0l0,0h0.1l0.1-0.1l0.1,0c0,0,0.1,0,0.1-0.1l0,0
			l0.2,0c0,0,0.1,0,0.1-0.1l0,0l0.3,0c0,0,0.1,0,0.1-0.1l0,0l0.4,0c0,0,0.1,0,0.1-0.1l0,0h0.5c0.1-0.1,0.1-0.1,0.2-0.1l0,0h1.6
			c0,0,0.1,0,0.1,0.1l0,0h0.5c0.1,0,0.1,0.1,0.2,0.1l0,0h0.3c0.1,0,0.1,0.1,0.2,0.1l0,0h0.2c0,0,0.1,0,0.1,0.1l0,0h0.2
			c0.1,0,0.1,0.1,0.2,0.1l0,0h0.1c0,0,0.1,0,0.1,0.1l0,0h0.1c0.1,0,0.2,0,0.2,0.1c0.1,0,0.2,0,0.3,0.1c0.1,0,0.1,0,0.2,0.1l0,0h0.1
			c0,0,0.1,0,0.1,0.1l0,0h0.1l0.1,0.1l0,0h0.1l0.1,0.1l0,0l0,0c0.1,0,0.1,0,0.1,0.1l0,0h0.2v0.1c0.1,0,0.1,0,0.2,0.1l0,0h0.1
			c0,0,0,0.1,0.1,0.1l0,0h0.1c0,0.1,0,0.1,0.1,0.1c0,0,0,0.1,0.1,0.1l0,0c0,0,0,0,0.1,0.1l0,0h0.1c0,0.1,0,0.1,0.1,0.1l0,0v0.1
			l0.1,0c0,0,0.1,0.1,0.1,0.1l0,0v0.1c0.1,0,0.1,0,0.1,0.1l0,0h0.1c0.1,0.1,0.1,0.1,0.2,0.2l0,0l0.3,0.3l3.6-3.6
			c-1.6-1.9-3.5-3.1-5.8-3.7c-0.6-0.2-1.2-0.3-1.8-0.4C587.9,178.1,587.2,178,586.5,178L586.5,178z M305.1,178.6h-27.4l5.3,5.3h16.8
			L305.1,178.6z M357.8,178.6h-27.4l5.3,5.3h16.8L357.8,178.6z M259.5,178H259c-1.7,0-3.2,0.5-4.4,1.6l0,0l4.2,4.1l4.5-4.5l-0.3-0.2
			C261.9,178.4,260.7,178,259.5,178L259.5,178z M386.4,178.6h-10.3l5.1,5.1L386.4,178.6z M524.4,178.6h-10.2l5.1,5.1L524.4,178.6z
			 M504.3,178.6h-10.2l5.1,5.1L504.3,178.6z M460.6,178.6h-10.2l5.1,5.1L460.6,178.6z M481.3,178.6H471l5.1,5.1L481.3,178.6z
			 M542.9,178.6h-10.1l6.4,4.3L542.9,178.6z M565,178.6h-10.4l4,4.3L565,178.6z"/>
	</g>
</g>
</svg>
