<svg xmlns="http://www.w3.org/2000/svg" viewBox="0 0 500 500"><title>Asset 14</title><g id="Layer_2" data-name="Layer 2"><g id="Layer_1-2" data-name="Layer 1"><rect width="500" height="500" style="fill:#fff"/><path d="M90.69,158.06h15.18c.69,0,.93-.46.93-1V137.45c0-.58-.24-1-.93-1h-7.3a7.63,7.63,0,0,1-7.88-8V99.56a7.63,7.63,0,0,1,7.88-8h20.5v11.24H104.36c-.46,0-.81.58-.81,1.27v19.11c0,.47.35,1,.81,1h7.41a7.72,7.72,0,0,1,8,8v29.54a7.73,7.73,0,0,1-8,8H90.69Z" style="fill:#082240"/><path d="M152.54,102.81v67h-13v-67h-9.85V91.57h32.67v11.24Z" style="fill:#082240"/><path d="M193.2,143.7h-4.41v26.07H175.71V91.57H202c5.78,0,9.38,3.82,9.38,9.61v32.91c0,4.52-2.2,7.75-5.79,9l5.91,26.65H198.65ZM198.65,104c0-.58-.47-1.16-.81-1.16h-9.05v30.11h9.05c.34,0,.81-.57.81-1Z" style="fill:#082240"/><path d="M229.11,91.57H258v11.24H242.2v22h12.86v10.89H242.2v22.82H258v11.24H229.11Z" style="fill:#082240"/><path d="M274.05,169.77V91.57H286.9v33.25l13.21-33.25h13l-15.74,37.07,16.21,41.13H300.11l-11.35-30.12L286.9,142v27.81Z" style="fill:#082240"/><path d="M327.44,91.57h28.84v11.24H340.53v22h12.86v10.89H340.53v22.82h15.75v11.24H327.44Z" style="fill:#082240"/><path d="M383.38,125.75v44h-11V91.57h10.89l14.83,47v-47h11v78.2H398.33Z" style="fill:#082240"/><path d="M90.69,208.67h34.62v15.74a3.69,3.69,0,0,1-3.8,3.9h-9a4.39,4.39,0,0,1-4.56-3.95c-.52,2.41-2.11,4-4.42,4h-9a3.67,3.67,0,0,1-3.84-3.89Zm14,12.82a.68.68,0,0,0,.73-.72v-5.18H96.33v5.18a.67.67,0,0,0,.67.72Zm14.06,0a.68.68,0,0,0,.76-.72v-5.18h-8.71v5.18a.69.69,0,0,0,.77.72Z" style="fill:#66c9d8"/><path d="M90.69,253v-6.72h34.62V253Z" style="fill:#66c9d8"/><path d="M125.31,271.59V288h-5.9v-9.43h-8.36v8h-5.8v-8H96.59V288h-5.9V271.59Z" style="fill:#66c9d8"/><path d="M127.6,317.8a3.89,3.89,0,0,1-3.45,4.62l-14.91,2.25a3.83,3.83,0,0,1-4.42-2.49L94,327.08l-1-6.74,10.73-4.79-.39-2.58-11.2,1.69-1-6.84,34.22-5.17ZM120.84,316a.5.5,0,0,0,.45-.48l-.78-5.17-11.66,1.76.78,5.17a.49.49,0,0,0,.52.34Z" style="fill:#66c9d8"/><path d="M157,377.49l-31.25,15.73-3.41-4.8,15.32-15.81-20.06,9.11-3.41-4.81,25.19-24.3,3.85,5.43-16.68,14.77,20.09-9.95,3.31,4.68L134,383.07l19.38-10.59Z" style="fill:#66c9d8"/><path d="M148.7,416l-5.09-4.38,22.55-26.28,5.1,4.38Z" style="fill:#66c9d8"/><path d="M179.34,417.11l-5,9.09a.5.5,0,0,0,.19.63l2.65,1.45a.53.53,0,0,0,.72-.15l13.57-24.94,6,3.29-14.72,27.06a3.86,3.86,0,0,1-5.3,1.6l-8.6-4.67a3.94,3.94,0,0,1-1.58-5.36l6.09-11.21Z" style="fill:#66c9d8"/><path d="M213,428.22l-4.52,18.65-5.93-1.44,8.14-33.65,5.88,1.42,3,21.31,4.7-19.45,5.93,1.44-8.14,33.66-5.93-1.44Z" style="fill:#66c9d8"/><path d="M283.07,413.33a4,4,0,0,1,4.95,3.1l3.7,16.63a4,4,0,0,1-3.16,4.91l-8,1.78,2.05,9.16-6.81,1.52-7.54-33.81Zm1.08,19.73a.48.48,0,0,0,.3-.54L281.7,420.2a.5.5,0,0,0-.51-.41l-4.81,1.08,3,13.27Z" style="fill:#66c9d8"/><path d="M320.43,435.88l-6.08,2.85-14.66-31.35,6.08-2.86Z" style="fill:#66c9d8"/><path d="M347,403l5.5,7.16a3.93,3.93,0,0,1-.76,5.76L343,422.55a3.93,3.93,0,0,1-5.72-.78L321,400.51a3.93,3.93,0,0,1,.68-5.76l8.67-6.66a4,4,0,0,1,5.79.79l5.4,7.05L336,400.15l-4-5.22c-.19-.24-.51-.31-.63-.22l-3.5,2.68a.54.54,0,0,0,0,.74l13.47,17.54a.48.48,0,0,0,.68.13l3.42-2.62a.48.48,0,0,0,.05-.69l-4.06-5.3Z" style="fill:#66c9d8"/><path d="M378.75,386.76l-14-3.66.88,2.63,8.66,6.74-4.22,5.42-27.32-21.24,4.21-5.43,11.42,8.88-7.13-14.39,4.47-5.75,7.61,16.12L383.25,381Z" style="fill:#66c9d8"/><path d="M377.78,350.34l17.71,7.35-2.34,5.64-32-13.27,2.32-5.58,21.52.32-18.47-7.66,2.34-5.64,32,13.27-2.33,5.63Z" style="fill:#66c9d8"/><path d="M407.48,316.21l-1.12,6.62-34.16-5.72,1.11-6.63Z" style="fill:#66c9d8"/><path d="M396.18,276.1h9a3.94,3.94,0,0,1,4.11,4.11v10.92a3.92,3.92,0,0,1-4.11,4.05H378.43a3.94,3.94,0,0,1-4.16-4.05V280.21a4,4,0,0,1,4.16-4.11h8.87V283h-6.56c-.31,0-.57.2-.57.35v4.42a.53.53,0,0,0,.57.46h22.1a.48.48,0,0,0,.52-.46v-4.31a.48.48,0,0,0-.52-.46h-6.66Z" style="fill:#66c9d8"/><path d="M409.1,244.84l-13.28,5.69,2.3,1.54h11v6.87H374.48v-6.87H389l-14.47-7v-7.28l15.91,8.05,18.71-8.36Z" style="fill:#66c9d8"/><path d="M403.05,223.7v-9a.43.43,0,0,0-.46-.46h-7.28a.43.43,0,0,0-.47.46V220a3.6,3.6,0,0,1-3.74,3.7H378.23a3.57,3.57,0,0,1-3.75-3.7V207.7h5.9v8.66a.53.53,0,0,0,.57.47h7.18a.49.49,0,0,0,.45-.47V211a3.62,3.62,0,0,1,3.75-3.75h13A3.62,3.62,0,0,1,409.1,211V223.7Z" style="fill:#66c9d8"/><path d="M254.41,435a4.54,4.54,0,1,0-4.53,4.53A4.53,4.53,0,0,0,254.41,435Z" style="fill:#66c9d8"/><path d="M122.85,346.07a4.53,4.53,0,1,0-4.54,4.54A4.54,4.54,0,0,0,122.85,346.07Z" style="fill:#66c9d8"/><path d="M323.48,293.29A73.51,73.51,0,1,0,250,366.81,73.51,73.51,0,0,0,323.48,293.29Z" style="fill:#66c9d8"/><polygon points="224.69 267.95 190.66 233.92 210.02 272.87 224.69 267.95" style="fill:#f4f4f4"/><polygon points="275.32 318.58 309.34 352.61 289.97 313.65 275.32 318.58" style="fill:#f4f4f4"/><polygon points="224.69 318.58 190.66 352.61 229.61 333.24 224.69 318.58 224.69 318.58" style="fill:#f4f4f4"/><polygon points="309.34 233.92 270.39 253.29 275.31 267.95 309.34 233.92" style="fill:#f4f4f4"/><path d="M250,268.66h0V209.34l-13.85,41.24-5.36,16,6,6A24.32,24.32,0,0,1,250,268.66Z" style="fill:#f4f4f4"/><path d="M250,317.92h0v59.25L263.85,336l5.36-16-6-6A24.27,24.27,0,0,1,250,317.92Z" style="fill:#f4f4f4"/><path d="M223.28,312.47l6-6a24.4,24.4,0,0,1-3.91-13.2h0s0,0,0,0H166.08l41.23,13.85Z" style="fill:#f4f4f4"/><path d="M285.8,293.26h48.12l-41.23-13.84-16-5.37-6,6a24.4,24.4,0,0,1,3.9,13.15v0Z" style="fill:#f4f4f4"/><path d="M269.26,293.25a19,19,0,0,0-2.48-9.24A19.23,19.23,0,0,0,250,274h0a19.56,19.56,0,0,0-19.3,19.25v0h0a19,19,0,0,0,2.49,9.28,19.23,19.23,0,0,0,16.81,10h0a18.91,18.91,0,0,0,9.26-2.5,19.21,19.21,0,0,0,10-16.79v0Zm-7.56,0a11.72,11.72,0,0,1-8.12,11.11A11.39,11.39,0,0,1,250,305h0a11.72,11.72,0,0,1-11.12-8.16,11.84,11.84,0,0,1-.61-3.58v0h0a11.67,11.67,0,0,1,8.2-11.1,11.47,11.47,0,0,1,3.53-.61h0a11.94,11.94,0,0,1,11.7,11.69h0Z" style="fill:#f4f4f4"/><path d="M273.77,204.53l-6.38,9.63c2.4.53,4.78,1.13,7.1,1.87Z" style="fill:#082240"/><path d="M226.22,204.53,225.51,216c2.31-.73,4.69-1.34,7.09-1.86Z" style="fill:#082240"/><path d="M212.72,221.35l-8.65-7.64L206.36,225C208.43,223.72,210.54,222.49,212.72,221.35Z" style="fill:#082240"/><path d="M181.75,249.62l-11.31-2.29,7.62,8.64C179.2,253.79,180.43,251.68,181.75,249.62Z" style="fill:#082240"/><path d="M172.71,268.78l-11.45.71,9.58,6.36C171.37,273.46,172,271.09,172.71,268.78Z" style="fill:#082240"/><path d="M295.93,213.71l-8.68,7.66c2.19,1.13,4.31,2.37,6.38,3.7Z" style="fill:#082240"/><path d="M329.1,275.88l9.64-6.39-11.51-.72C328,271.1,328.57,273.47,329.1,275.88Z" style="fill:#082240"/><path d="M321.89,256l7.66-8.68-11.36,2.29C319.52,251.7,320.76,253.82,321.89,256Z" style="fill:#082240"/><path d="M273.78,382l.71-11.46c-2.31.74-4.68,1.34-7.07,1.86Z" style="fill:#082240"/><path d="M318.22,336.91l11.33,2.29-7.64-8.66C320.77,332.72,319.54,334.85,318.22,336.91Z" style="fill:#082240"/><path d="M287.29,365.2l8.64,7.63-2.29-11.32C291.57,362.83,289.47,364.07,287.29,365.2Z" style="fill:#082240"/><path d="M327.25,317.76l11.48-.71-9.62-6.39C328.59,313.07,328,315.44,327.25,317.76Z" style="fill:#082240"/><path d="M178.05,330.58l-7.61,8.62,11.29-2.28C180.41,334.86,179.18,332.76,178.05,330.58Z" style="fill:#082240"/><path d="M226.22,382l6.36-9.59c-2.4-.52-4.76-1.12-7.07-1.85Z" style="fill:#082240"/><path d="M170.84,310.69l-9.58,6.36,11.43.71C172,315.45,171.36,313.09,170.84,310.69Z" style="fill:#082240"/><path d="M204.07,372.82l8.61-7.6q-3.26-1.71-6.33-3.68Z" style="fill:#082240"/><path d="M350.7,293.26l-55.62-18.67,26.13-52.53-52.53,26.12L250,192.56l-18.67,55.62-52.54-26.12,26.12,52.53L149.3,293.26l55.61,18.68-26.12,52.54,52.54-26.13L250,394l18.68-55.62,52.53,26.12-26.13-52.53ZM236.15,250.58,250,209.34v59.32h0a24.32,24.32,0,0,0-13.17,3.89l-6-6Zm-45.49-16.66,34,34L210,272.87Zm-24.58,59.34h59.27s0,0,0,0h0a24.4,24.4,0,0,0,3.91,13.2l-6,6-16-5.36Zm24.58,59.35,34-34h0l4.93,14.66ZM263.85,336,250,377.18V317.93h0A24.27,24.27,0,0,0,263.21,314l6,6Zm-4.57-25.87a18.91,18.91,0,0,1-9.26,2.5h0a19.23,19.23,0,0,1-16.81-10,19,19,0,0,1-2.49-9.28h0v0A19.56,19.56,0,0,1,250,274h0a19.23,19.23,0,0,1,16.78,10,19,19,0,0,1,2.48,9.24h0v0A19.21,19.21,0,0,1,259.28,310.08Zm50.06-76.16-34,34-4.92-14.66ZM274.6,293.24a24.4,24.4,0,0,0-3.9-13.15l6-6,16,5.37,41.23,13.84H274.6Zm34.74,59.37-34-34L290,313.65Z" style="fill:#082240"/><path d="M261.7,293.25A11.94,11.94,0,0,0,250,281.56h0a11.47,11.47,0,0,0-3.53.61,11.67,11.67,0,0,0-8.2,11.1h0v0a11.84,11.84,0,0,0,.61,3.58A11.72,11.72,0,0,0,250,305h0a11.39,11.39,0,0,0,3.57-.62,11.72,11.72,0,0,0,8.12-11.11v0Z" style="fill:#082240"/></g></g></svg>