<svg xmlns="http://www.w3.org/2000/svg" viewBox="0 0 500 500"><title>Asset 11</title><g id="Layer_2" data-name="Layer 2"><g id="Layer_1-2" data-name="Layer 1"><rect width="500" height="500" style="fill:#fff"/><path d="M63.08,221a332.11,332.11,0,0,0-15.5,53.84L30.3,277.77l2.87-28.3L26,275.69l-16.44,3a414.26,414.26,0,0,0,3.62-53.23l14.66-2.78-3,33.79,10-37.49,7.88-1.16-5.37,47.6L48.1,223.31Z"/><path d="M63.55,223.93l13.26-2.47q-8,30.93-10.49,53.61l-12.26,3.4Z"/><path d="M98,220.15q8,0,11.8,8.71L101,238.43A5.54,5.54,0,0,0,97,236.58q-4.1,0-8.49,7a34.52,34.52,0,0,0-4.7,10.8,19.73,19.73,0,0,0-.54,4.32q0,5.16,3.78,7.1a5.77,5.77,0,0,0,2.62.61q4,0,8.41-5.94l2.47,9.18q-7.64,8.49-15.51,8.49t-11.72-8.49a26.29,26.29,0,0,1-2.24-11,41.86,41.86,0,0,1,1.16-9.49A47.89,47.89,0,0,1,81,230.41Q88.77,220.15,98,220.15Z"/><path d="M110.22,223.93l13.27-2.47q-1.78,6.78-2.63,10.72,6.72-5.87,12.27-11.26l9.68,6.3-15.16,13.5,8.56,31.42-14,7.41-5.4-29.14q-2.4,12.45-3.79,24.67l-12.24,3.39Z"/><path d="M154.42,235.39c-.41,1.5-.77,3-1.08,4.42l-.85,4.25,12.34-2.62-.69,10.65q-8.77,1.54-13.78,2.7c-.2,1-.38,2.06-.54,3.08l-.57,3,14.35-2.08-1,14.34q-11.11.93-28.16,5.33l9.18-55.31,25.69-3.79-1,14.33Q160.75,234.4,154.42,235.39Z"/><path d="M172,223.85q8.87-2.92,15-2.93,6.94,0,10.57,3.62a17.41,17.41,0,0,1,5,12.58,25.61,25.61,0,0,1-.69,5.71,44.65,44.65,0,0,1-14.19,23.72q-11.19,10.14-24.92,11.92.15-1.7,1.62-10.11l6.17-35.48C171.49,227.58,172,224.57,172,223.85Zm11,12.73q-3.56,15.12-5.4,28.62A51.87,51.87,0,0,0,185.89,255q4.49-7.11,4.48-12.19Q190.37,236.28,183,236.58Z"/><path d="M242.13,218.06q8.18,0,11.57,9.11a28.87,28.87,0,0,1,1.78,10.33,47.52,47.52,0,0,1-1.62,11.73,55.63,55.63,0,0,1-9.88,19.9q-8.56,11.12-18.13,11.11-8.25,0-11.72-9.1a28.14,28.14,0,0,1-1.7-10,46.66,46.66,0,0,1,1.7-11.88,56.13,56.13,0,0,1,9.8-20Q232.48,218.06,242.13,218.06Zm-2.78,19.14q-4.23,0-8.64,6.94a37.41,37.41,0,0,0-4.93,10.72,20.53,20.53,0,0,0-.7,5,8.19,8.19,0,0,0,1.55,5.16,5.91,5.91,0,0,0,4.93,2.24q4.32,0,7.79-4.55a23.12,23.12,0,0,0,4-8.56,28.74,28.74,0,0,0,.61-11.42C243.37,239.05,241.82,237.2,239.35,237.2Z"/><path d="M260,224.16l13.34-2.7c-.1,1.59-.15,3.86-.15,6.79q0,10.49.69,18.43a41.93,41.93,0,0,0,1.16,7.33l5.25-30.08,13.27-2.47q-8,30.93-10.5,53.61l-12.18,3.4c-.06-.11-.39-1-1-2.7l-4-11.42a35.78,35.78,0,0,1-1.16-3.55q-1.62,9.1-2.54,17.67l-12.34,3.7Z"/><path d="M305.31,235.39c-.41,1.5-.77,3-1.08,4.42l-.85,4.25,12.35-2.62-.7,10.65q-8.77,1.54-13.78,2.7c-.2,1-.38,2.06-.53,3.08l-.58,3,14.35-2.08-1,14.34q-11.12.93-28.16,5.33l9.18-55.31,25.7-3.79-1,14.33Q311.64,234.4,305.31,235.39Z"/><path d="M323.83,223.93l13.26-2.47q-5.55,21.36-8.56,39.42l13.58-2.08L341,273.14q-10.49.93-26.61,5.33Z"/><path d="M351,223.93l13.27-2.47q-8,30.93-10.49,53.61l-12.27,3.4Z"/><path d="M367.41,224.16l13.35-2.7c-.11,1.59-.16,3.86-.16,6.79q0,10.49.7,18.43a41.12,41.12,0,0,0,1.15,7.33l5.25-30.08L401,221.46q-8,30.93-10.49,53.61l-12.19,3.4c-.05-.11-.39-1-1-2.7l-4-11.42a34.65,34.65,0,0,1-1.15-3.55q-1.62,9.1-2.55,17.67l-12.34,3.7Z"/><path d="M412.69,235.39c-.41,1.5-.77,3-1.08,4.42l-.84,4.25,12.34-2.62-.69,10.65q-8.79,1.54-13.78,2.7c-.21,1-.39,2.06-.54,3.08l-.58,3,14.35-2.08-1,14.34q-11.1.93-28.16,5.33l9.19-55.31,25.69-3.79-1,14.33Q419,234.4,412.69,235.39Z"/><path d="M430.59,223.85q12.12-3.63,19.83-3.63,10.41,0,10.33,7.26-.08,10.41-13.11,20.9,1.08,2.94,8.95,18.44-4,3.71-12,10.88l-8.22-21.3-.08,0-.09,0q-1.84,10.11-2.76,18.67l-12.21,3.4q.15-1.7,1.7-10.26ZM440.31,236q-.69,2.63-1.23,5.24L438,246.53a27.77,27.77,0,0,0,5.32-3.63,14.42,14.42,0,0,0,4-5,2.68,2.68,0,0,0,.39-1.31c0-1.13-.75-1.7-2.24-1.7A17.73,17.73,0,0,0,440.31,236Z"/><path d="M490.07,237.58c-1.65.62-3.6,1.36-5.86,2.24l-5.79,2.24q0-3.63-2-3.63-2.85,0-5.7,3.24a5.93,5.93,0,0,0-1.7,4.63c.15,1,1.13,1.46,2.93,1.46a21.19,21.19,0,0,0,3.86-.46,29.14,29.14,0,0,1,5.86-.69q6.48,0,7.56,4.47a13.85,13.85,0,0,1,.31,2.93q0,4.94-3.7,10.65a39.08,39.08,0,0,1-13.43,12.57,17.44,17.44,0,0,1-8.95,2.7,15.49,15.49,0,0,1-7.86-2.23q1.92-4.63,6.17-13.66a9.09,9.09,0,0,0,5.24,1.7,8.93,8.93,0,0,0,2.55-.39,20.45,20.45,0,0,0,4.55-1.77q3.09-1.69,3.09-3.47c0-1.29-1.06-1.93-3.17-1.93a31.9,31.9,0,0,0-6.28.89,32.68,32.68,0,0,1-6.29.88,7.63,7.63,0,0,1-4.4-1.08c-2-1.33-2.83-3.42-2.47-6.25q1-8.55,11-19.82,10.26-11.58,17.67-12.11,7.17-.47,7.17,10.8A53.62,53.62,0,0,1,490.07,237.58Z"/></g></g></svg>